<svg version="1.1" id="Layer_1" xmlns="http://www.w3.org/2000/svg" xmlns:xlink="http://www.w3.org/1999/xlink" x="0px" y="0px"
	 width="100%" height="100%" viewBox="0 0 401 383.777" enable-background="new 0 0 401 383.777" xml:space="preserve">
<path d="M380.862,197H381v-23h1v-8h-31.102c-0.471-18-4.093-34.906-10.327-50.548c4.942-0.31,8.516-0.653,9.358-1.255
	c3.383-2.416,1.933-15.197,1.933-15.197H352V76h1v-8h-43.237c-26.759-28-64.306-45.297-105.823-45.297
	c-0.395,0-0.786-0.1-1.18-0.098L183.186,4.173l-5.475,5.805l1.246,1.354L163,28.093V28.09c0,0,0.189,0.261,0.154,0.316
	C138.004,35.641,115.81,49,98.119,68H65v8h2v22.549c0,0,0.824,7.297,2.877,11.97C62.375,127.505,57.498,146,56.979,166H35v8h2
	v22.549c0,0,1.922,12.971,5.305,15.387c1.461,1.044,10.884,1.848,21.669,1.973C69.146,230.281,76.87,245,87.066,259H60v8h2v22.549
	c0,0,1.922,12.971,5.305,15.387s50.489,2.339,53.872-0.077c2.409-1.721,2.245-8.753,2.021-12.66
	c1.373,0.908,2.695,1.802,4.101,2.665l-37.13,80.741l33.422,0.278l30.127-67.991c10.631,3.877,21.827,6.108,33.435,8.108H176v8h2
	v22.549c0,0,1.922,12.971,5.305,15.387s50.489,2.564,53.872,0.148S238.862,347,238.862,347H239v-23h1v-8h-19.266
	c12.365-2,24.27-4.597,35.518-8.895l30.481,68.891l33.438-0.335l-37.147-81.949c2.203-1.398,4.977-2.89,6.977-4.401v0.238
	c0,0,1.922,12.971,5.305,15.387s50.489,2.564,53.872,0.148S350.862,290,350.862,290H351v-23h1v-8h-31.188
	c10.204-14,18.178-28.742,23.35-45.13c14.729,0.275,32.729-0.218,34.768-1.673C382.313,209.781,380.862,197,380.862,197z M349,76h2
	v23h-2V76z M348,76v23h-15.334c-4.521-9-9.795-16-15.732-23H348z M325.799,99H298v-6.744l14.576-12.966
	C317.672,85.372,321.771,92,325.799,99z M300.465,111.337l-0.906,0.424l-3.5-7.5l0.906-0.424L300.465,111.337z M308.996,76
	c0.369,0,1.238,0.593,1.602,1.01L298,88.247V76H308.996z M207,36.519l14.713,13.813L207,66.002V36.519z M207,67.462l14.947-16.447
	l1.212,1.37l-15.372,16.77L207,68.068V67.462z M207,73.486c1-1.707,2.014-3.065,2.014-3.065l-0.869-0.583l15.621-16.77l0.666,0.686
	l5.443-5.832L209.273,28.82C244.875,30.148,277.122,45,301.251,68H289v8h2v18.377l-67.279,58.909
	c-4.287-4.549-10.721-7.599-16.721-8.246V73.486z M292,93.501V76h5v13.123L292,93.501z M297,93.131V99h-5v-1.492L297,93.131z
	 M204,33.702v31.55l-34.877-32.281c9.326-2.415,19.271-3.892,29.234-4.334L204,33.702z M191.609,22.998
	c-5.38,0.449-10.678,1.192-15.879,2.208l8.541-9.098L191.609,22.998z M179.896,12.002l3.646,3.423l-9.494,10.112
	c-2.99,0.62-5.945,1.338-8.867,2.137L179.896,12.002z M163.925,36.389l0.949,0.313l-2.582,7.863l-0.949-0.313L163.925,36.389z
	 M159.172,36.002c-1.337,2.844-2.391,5.676-2.051,7.385c0.813,4.074,35.883,36.375,40.004,36.928
	c1.758,0.236,4.875-1.578,6.875-3.672v68.275c-7,0.092-13.641,2.803-18.316,7.18L128.4,103.38c-0.065-2.588-0.538-4.38-0.538-4.38
	H128V76h1v-8h-22.373C121.445,53,139.331,42.665,159.172,36.002z M127,76v23h-2V76H127z M98.881,76H124v23h-1.213L97.623,77.406
	C98.036,76.932,98.461,76,98.881,76z M118.217,99H82.166c3.982-7,8.519-13.277,13.555-19.309L118.217,99z M74,76h16.951
	c-5.938,7-11.215,14-15.736,23H74V76z M76.465,111.337l-0.906,0.424l-0.1-0.215c0.18-0.399,0.361-0.798,0.545-1.195L76.465,111.337z
	 M72.261,104.166c-0.042,0.086-0.084,0.172-0.126,0.258l-0.076-0.163L72.261,104.166z M68,99V76h5v23H68z M74.125,114.821
	c10.263,1.715,48.767,1.319,51.805-0.851c1.416-1.012,1.984-3.916,2.167-6.885l55.042,47.441c-3.563,4.177-5.883,9.473-6.312,15.473
	H99v-4H63.072C63.568,148,67.459,130.56,74.125,114.821z M97,174v23h-2v-23H97z M43,197h-5v-23h5V197z M45.559,209.761l-3.5-7.5
	l0.906-0.424l3.5,7.5L45.559,209.761z M44,197v-23h12.992c0.213,7,1.049,15,2.447,23H44z M62.996,174H94v23H65.544
	C64.085,189,63.219,181,62.996,174z M70.037,213.931c12.285-0.055,24.253-0.563,25.893-1.733C99.313,209.781,97.862,197,97.862,197
	H98v-23h1v-1h77.772c0.13,3,0.907,6.476,2.217,9.457l-7.137,15.645L101.93,259h-7.228C83.936,245,75.5,230.433,70.037,213.931z
	 M122,283.459c-1-0.49-1-0.993-2-1.495V267h2V283.459z M119,281.216c-6-4.463-12.207-9.216-17.238-14.216H119V281.216z M68,290h-5
	v-23h5V290z M70.559,302.761l-3.5-7.5l0.906-0.424l3.5,7.5L70.559,302.761z M69,290v-23h24.63c7.271,8,16.37,15.24,25.37,21.698V290
	H69z M119.012,289.549v-0.123c0.059,0.041,0.119,0.081,0.178,0.123H119.012z M130.256,289.368c-2.645-1.642-5.256-3.374-7.256-5.183
	V267h1v-8h-17.496l62.536-54.353L130.256,289.368z M156.635,302.161l46.203-104.033c0.304,0.014,1.162,0.019,1.162,0.023v112.344
	C187,310.389,171.293,307.458,156.635,302.161z M184,347h-5v-23h5V347z M186.559,359.761l-3.5-7.5l0.906-0.424l3.5,7.5
	L186.559,359.761z M236,324h2v23h-2V324z M235,324v23h-50v-23H235z M207,310.48V198.016c1-0.069,0.869-0.154,1.537-0.272
	l46.028,103.642C239.661,307.04,224,310.236,207,310.48z M290,281.864c-3,2.216-6.41,4.334-9.502,6.321l-38.834-83.753L304.721,259
	H288v8h2V281.864z M306.13,267c-3.212,3-6.13,6.15-9.13,9.201V267H306.13z M296,290h-5v-1.403c2-1.229,3-2.492,5-3.79V290z
	 M296,277.05c-2,1.386-3,2.729-5,4.041V267h5V277.05z M298.559,302.761l-3.5-7.5l0.906-0.424l3.5,7.5L298.559,302.761z M348,267h2
	v23h-2V267z M347,267v23h-50v-5.99c6-5.292,11.687-11.01,17.257-17.01H347z M313.176,259h-3.852l-70.9-61.081l-9.163-19.829
	c0.401-1.678,0.638-4.09,0.707-5.09H318v1h2v22.549c0,0,1.922,12.971,5.305,15.387c1.043,0.746,6.029,1.479,12.862,1.754
	C332.706,230.284,323.995,245,313.176,259z M321,197v-23h5v23H321z M325.059,202.261l0.906-0.424l3.5,7.5l-0.906,0.424
	L325.059,202.261z M342.338,197H327v-23h17.883C344.66,181,343.797,189,342.338,197z M318,166v4h-88.082
	c-0.386-6-1.801-10.236-4.766-14.188L291,98.383v0.166c0,0,1.922,12.971,5.305,15.387c2.211,1.579,22.965,2.319,38.19,1.811
	C340.944,131.23,344.463,148,344.953,166H318z M377,197h-28.559c1.398-8,2.232-16,2.446-23H377V197z M380,197h-2v-23h2V197z"/>
</svg>
