<?xml version="1.0" encoding="utf-8"?>
<!-- Generator: Adobe Illustrator 16.0.0, SVG Export Plug-In . SVG Version: 6.00 Build 0)  -->
<!DOCTYPE svg PUBLIC "-//W3C//DTD SVG 1.1//EN" "http://www.w3.org/Graphics/SVG/1.1/DTD/svg11.dtd">
<svg version="1.1" id="ferris" xmlns="http://www.w3.org/2000/svg" xmlns:xlink="http://www.w3.org/1999/xlink" x="0px" y="0px"
	 width="900px" height="426.5px" viewBox="-853.5 0 900 426.5" enable-background="new -853.5 0 900 426.5" xml:space="preserve">
<g id="tagline">
	<path id="C_2_" fill="#FED831" d="M-557.472,390.164v1.111c0,4.105-0.725,8.6-6.571,8.6c-5.604,0-6.571-3.962-6.571-8.697v-16.426
		c0-5.171,2.223-8.021,6.619-8.021c5.412,0,6.378,3.866,6.378,8.068v1.257h-3.479v-1.497c0-2.561-0.435-4.688-2.947-4.688
		c-2.416,0-3.044,1.934-3.044,4.783v16.718c0,3.237,0.725,5.364,3.141,5.364c2.512,0,2.947-2.175,2.947-5.219v-1.354H-557.472
		L-557.472,390.164z"/>
	<path id="O_2" fill="#FED831" d="M-545.598,382.396v11.396c0,3.957-1.657,5.951-5.005,5.951c-3.518,0-4.802-2.231-4.802-5.918
		v-11.43c0-3.822,1.758-5.852,4.937-5.852C-547.12,376.546-545.598,378.846-545.598,382.396z M-552.937,382.295v11.701
		c0,2.57,0.914,3.551,2.435,3.551c1.59,0,2.435-0.98,2.435-3.652v-11.6c0-2.4-0.811-3.551-2.468-3.551
		C-552.159,378.744-552.937,379.826-552.937,382.295z"/>
	<path id="N_2_" fill="#FED831" d="M-542.791,399.441V376.85h2.875l3.821,13.866c0.507,1.759,0.744,3.077,0.913,3.991h0.068
		c-0.135-3.045-0.169-6.223-0.169-9.876v-7.981h2.266v22.592h-2.773l-4.262-15.794c-0.338-1.149-0.474-2.063-0.608-2.671h-0.034
		c0.136,2.705,0.203,6.324,0.203,10.416v8.049H-542.791L-542.791,399.441z"/>
	<path id="J" fill="#FED831" d="M-525.951,394.842c0,2.569-0.27,4.869-3.686,4.869c-0.474,0-1.117-0.033-1.454-0.101v-2.097
		c0.203,0.033,0.575,0.067,1.049,0.067c1.217,0,1.691-0.405,1.691-2.366V376.85h2.401L-525.951,394.842L-525.951,394.842z"/>
	<path id="U" fill="#FED831" d="M-520.472,376.85v17.553c0,1.859,0.643,3.145,2.367,3.145c1.725,0,2.3-1.217,2.3-3.111V376.85h2.435
		v17.485c0,3.483-1.59,5.41-4.802,5.41c-3.112,0-4.701-1.758-4.701-5.343V376.85H-520.472z"/>
	<path id="R_2_" fill="#FED831" d="M-510.157,376.85h3.956c3.416,0,5.073,1.455,5.073,5.209v1.015c0,3.078-1.082,4.329-2.299,4.769
		c1.42,0.541,2.097,1.623,2.097,4.633c0,1.928-0.034,5.546,0.237,6.967h-2.367c-0.271-1.421-0.237-5.209-0.237-6.798
		c0-2.909-0.406-3.754-2.639-3.754h-1.386v10.552h-2.434V376.85z M-507.723,386.86h1.454c2.165,0,2.706-1.251,2.706-3.651v-1.016
		c0-2.063-0.541-3.313-2.807-3.313h-1.353V386.86z"/>
	<path id="I_3_" fill="#FED831" d="M-495.92,376.85v22.592h-2.435V376.85H-495.92z"/>
	<path id="N_1_" fill="#FED831" d="M-492.606,399.441V376.85h2.875l3.822,13.866c0.507,1.759,0.744,3.077,0.913,3.991h0.068
		c-0.135-3.045-0.169-6.223-0.169-9.876v-7.981h2.266v22.592h-2.773l-4.262-15.794c-0.338-1.149-0.474-2.063-0.609-2.671h-0.033
		c0.135,2.705,0.203,6.324,0.203,10.416v8.049H-492.606L-492.606,399.441z"/>
	<path id="G" fill="#FED831" d="M-470.489,399.441h-1.894c-0.068-0.373-0.136-1.454-0.169-1.961
		c-0.542,1.69-1.827,2.265-3.314,2.265c-3.111,0-4.159-2.3-4.159-5.917v-11.297c0-3.721,1.521-5.986,4.836-5.986
		c3.956,0,4.667,2.773,4.667,5.648v0.574h-2.402v-0.608c0-1.589-0.203-3.416-2.265-3.416c-1.59,0-2.367,0.981-2.367,3.551v11.668
		c0,2.198,0.575,3.618,2.232,3.618c2.063,0,2.435-1.893,2.435-4.768v-3.619h-2.537v-2.096h4.938v12.344H-470.489z"/>
	<path id="C_1_" fill="#FED831" d="M-447.796,390.164v1.111c0,4.105-0.725,8.6-6.57,8.6c-5.605,0-6.571-3.962-6.571-8.697v-16.426
		c0-5.171,2.222-8.021,6.62-8.021c5.412,0,6.378,3.866,6.378,8.068v1.257h-3.479v-1.497c0-2.561-0.435-4.688-2.947-4.688
		c-2.417,0-3.044,1.934-3.044,4.783v16.718c0,3.237,0.725,5.364,3.141,5.364c2.513,0,2.947-2.175,2.947-5.219v-1.354H-447.796
		L-447.796,390.164z"/>
	<path id="R_3_" fill="#FED831" d="M-445.222,376.85h3.956c3.416,0,5.073,1.455,5.073,5.209v1.015c0,3.078-1.083,4.329-2.299,4.769
		c1.42,0.541,2.097,1.623,2.097,4.633c0,1.928-0.034,5.546,0.237,6.967h-2.367c-0.271-1.421-0.237-5.209-0.237-6.798
		c0-2.909-0.405-3.754-2.638-3.754h-1.386v10.552h-2.435L-445.222,376.85L-445.222,376.85z M-442.788,386.86h1.454
		c2.165,0,2.706-1.251,2.706-3.651v-1.016c0-2.063-0.541-3.313-2.807-3.313h-1.353V386.86z"/>
	<path id="E_2_" fill="#FED831" d="M-425.946,388.518h-5.073v8.725h5.749l-0.305,2.198h-7.845V376.85h7.745v2.232h-5.343v7.203
		h5.073L-425.946,388.518L-425.946,388.518z"/>
	<path id="A_1_" fill="#FED831" d="M-420.434,392.237l-1.083,7.203h-2.435l3.72-22.591h3.416l3.889,22.591h-2.537l-1.149-7.203
		H-420.434z M-416.917,390.006c-0.812-4.973-1.353-8.793-1.589-10.924h-0.102c-0.067,1.725-0.879,6.798-1.488,10.924H-416.917z"/>
	<path id="T_1_" fill="#FED831" d="M-410.289,379.082h-3.652v-2.232h9.706v2.232h-3.652v20.359h-2.401L-410.289,379.082
		L-410.289,379.082z"/>
	<path id="I_2_" fill="#FED831" d="M-400.244,376.85v22.592h-2.435V376.85H-400.244z"/>
	<path id="V" fill="#FED831" d="M-395.679,376.85l1.522,10.112c0.439,3.179,1.115,7.034,1.319,9.368h0.034
		c0.203-2.267,0.879-6.121,1.353-9.268l1.522-10.213h2.57l-3.957,22.591h-3.009l-3.957-22.591H-395.679L-395.679,376.85z"/>
	<path id="I_1_" fill="#FED831" d="M-382.963,376.85v22.592h-2.435V376.85H-382.963z"/>
	<path id="T" fill="#FED831" d="M-377.586,379.082h-3.652v-2.232h9.707v2.232h-3.652v20.359h-2.401L-377.586,379.082
		L-377.586,379.082z"/>
	<path id="Y" fill="#FED831" d="M-366.19,399.441v-8.422c0-0.27-0.034-0.404-0.101-0.608l-4.16-13.562h2.638
		c1.116,4.094,2.469,8.962,2.84,11.025h0.034c0.439-2.164,1.827-7.136,2.875-11.025h2.536l-4.193,13.697
		c-0.034,0.169-0.068,0.338-0.068,0.676v8.219H-366.19z"/>
	<path id="S_2_" fill="#FED831" d="M-349.035,390.357v1.885c0,3.044,1.063,4.639,3.334,4.639c2.319,0,3.189-1.643,3.189-5.219
		c0-3.769-0.822-5.218-4.204-7.875c-3.479-2.705-5.218-4.348-5.218-9.084c0-4.105,1.256-8.02,6.281-7.972
		c4.831,0,6.087,3.188,6.087,7.296v1.497h-3.43v-1.401c0-2.656-0.483-4.396-2.706-4.396s-2.802,1.933-2.802,4.445
		c0,2.995,0.628,4.154,3.575,6.378c4.493,3.382,5.894,5.315,5.894,10.63c0,4.541-1.304,8.697-6.764,8.697
		c-5.17,0-6.668-3.432-6.668-7.683v-1.836L-349.035,390.357L-349.035,390.357z"/>
	<path id="I_4_" fill="#FED831" d="M-333.879,376.85v22.592h-2.435V376.85H-333.879z"/>
	<path id="N" fill="#FED831" d="M-330.565,399.441V376.85h2.875l3.822,13.866c0.507,1.759,0.743,3.077,0.912,3.991h0.068
		c-0.135-3.045-0.169-6.223-0.169-9.876v-7.981h2.266v22.592h-2.773l-4.261-15.794c-0.338-1.149-0.473-2.063-0.609-2.671h-0.033
		c0.135,2.705,0.203,6.324,0.203,10.416v8.049H-330.565z"/>
	<path id="C" fill="#FED831" d="M-308.787,392.947v0.778c0,2.874-0.507,6.02-4.599,6.02c-3.923,0-4.599-2.772-4.599-6.087V382.16
		c0-3.619,1.556-5.614,4.633-5.614c3.788,0,4.464,2.705,4.464,5.647v0.88h-2.435v-1.049c0-1.792-0.305-3.28-2.063-3.28
		c-1.691,0-2.131,1.353-2.131,3.348v11.701c0,2.266,0.507,3.754,2.198,3.754c1.759,0,2.063-1.522,2.063-3.652v-0.947H-308.787z"/>
	<path id="E_3_" fill="#FED831" d="M-299.013,388.518h-5.074v8.725h5.75l-0.305,2.198h-7.846V376.85h7.744v2.232h-5.343v7.203h5.074
		V388.518L-299.013,388.518z"/>
	<path id="one_1_" fill="#FED831" d="M-287.645,399.441v-27.348c-0.87,0.387-2.803,0.87-3.624,0.966v-2.753
		c1.836-0.339,3.769-1.547,4.59-2.465h2.464v31.6H-287.645z"/>
	<path id="nine" fill="#FED831" d="M-276.63,392.628v0.339c0,2.705,0.966,3.961,2.803,3.961c2.368,0,3.092-1.497,3.092-6.57v-5.654
		c-0.677,1.45-1.836,2.368-4.155,2.368c-4.059,0-5.46-2.996-5.46-7.345v-4.59c0-4.639,2.125-7.488,6.57-7.488
		c4.156,0,6.426,2.463,6.426,7.682v14.157c0,6.087-0.676,10.34-6.523,10.34c-4.929,0-6.185-3.383-6.185-7.007v-0.192H-276.63z
		 M-276.919,374.848v4.879c0,2.174,0.434,4.301,2.898,4.301c2.657,0,3.286-2.32,3.286-5.508v-3.576c0-2.898-0.871-4.396-3.092-4.396
		C-275.857,370.547-276.919,371.804-276.919,374.848z"/>
	<path id="seven_1_" fill="#FED831" d="M-251.942,368.035v2.561c-3.914,7.73-6.91,17.346-8.214,28.845h-3.527
		c1.063-10.099,4.3-20.872,8.214-28.313h-9.422v-3.092H-251.942z"/>
	<path id="eight" fill="#FED831" d="M-249.77,392.242v-3.527c0-4.06,1.692-5.315,3.141-6.186c-1.691-1.014-2.658-2.656-2.658-5.846
		v-1.885c0-4.494,2.126-7.15,6.426-7.15c3.721,0,6.088,2.174,6.088,7.15v1.691c0,3.961-1.257,5.17-2.754,5.991
		c1.884,0.87,3.14,2.513,3.14,6.185v3.383c0,5.267-2.125,7.779-6.716,7.779C-247.208,399.828-249.77,397.557-249.77,392.242z
		 M-239.769,392.387v-4.059c0-2.996-1.063-4.252-3.285-4.252c-2.223,0-3.285,1.304-3.285,4.348v3.914
		c0,2.609,0.918,4.493,3.285,4.493C-240.542,396.832-239.769,395.092-239.769,392.387z M-246.001,374.654v2.609
		c0,2.271,0.918,3.816,2.996,3.816c1.932,0,2.948-1.16,2.948-3.865v-2.609c0-2.174-0.58-3.962-2.948-3.962
		C-245.228,370.645-246.001,372.335-246.001,374.654z"/>
</g>
<g id="bsharisemoore">
	<path id="B" fill="#F47C20" d="M-783.215,288.059c0-3.955-0.498-6.748-1.493-8.377c-1.06-1.629-2.809-2.412-5.247-2.346
		c-1.83-0.064-3-0.193-3.514-0.386c-0.548-0.067-0.789-0.307-0.722-0.729c0-0.449,0.192-0.772,0.575-0.969
		c0.414-0.063,1.102-0.096,2.062-0.096c3.932,0.066,8.393,0.164,13.379,0.297c4.38-0.066,8.569-0.165,12.564-0.297
		c7.482,0,13.379,1.225,17.696,3.676c4.251,2.484,6.41,6.475,6.474,11.975c-0.065,8.744-5.5,14.076-16.304,15.998v0.198
		c6.688,0.398,12.243,2.054,16.669,4.969c4.361,2.98,6.573,7.733,6.64,14.259c-0.129,6.657-2.922,11.295-8.378,13.911
		c-5.457,2.584-12.134,3.843-20.031,3.775c-4.912-0.129-10-0.226-15.264-0.292c-5.008,0.066-9.487,0.162-13.435,0.292
		c-1.831,0-2.714-0.355-2.647-1.064c-0.068-0.42,0.174-0.729,0.722-0.922c0.514-0.127,1.684-0.193,3.514-0.193
		c2.438-0.066,4.187-0.917,5.247-2.545c0.995-1.626,1.493-4.35,1.493-8.173V288.059z M-772.989,332.664
		c-0.068,5.981,3.319,9.007,10.16,9.072c10.787,0.133,16.18-5.418,16.18-16.649c0-6.382-1.797-10.802-5.394-13.261
		c-3.627-2.257-9.053-3.34-16.277-3.24c-1.99,0-3.241,0.1-3.755,0.298c-0.678,0.201-0.982,0.602-0.915,1.198V332.664
		L-772.989,332.664z M-772.989,304.615c0,1.297,0.825,1.896,2.478,1.797c12.164,0.298,18.311-4.523,18.439-14.464
		c-0.065-5.451-1.462-9.308-4.192-11.571c-2.732-2.092-6.322-3.107-10.769-3.041c-3.97,0-5.955,0.717-5.955,2.145V304.615z"/>
	<path id="period" fill="#F47C20" d="M-711.503,344.215c-1.508-0.066-2.792-0.673-3.852-1.829c-1.188-1.055-1.782-2.358-1.782-3.906
		c0-1.647,0.595-3.034,1.782-4.153c1.06-1.088,2.344-1.632,3.852-1.632c1.574,0,2.921,0.544,4.045,1.632
		c1.026,1.12,1.541,2.506,1.541,4.153c0,1.549-0.515,2.852-1.541,3.906C-708.582,343.542-709.93,344.148-711.503,344.215z"/>
	<path id="S_1_" fill="#F47C20" d="M-664.362,324.715c0-1.162,0.465-1.742,1.397-1.742c0.897,0,1.379,0.646,1.442,1.94
		c0.226,1.097,0.722,2.586,1.493,4.48c0.673,1.99,1.73,4.03,3.174,6.118c1.443,1.99,3.351,3.702,5.724,5.126
		c2.212,1.563,5.003,2.341,8.371,2.341c5.098-0.066,8.899-1.49,11.401-4.278c2.436-2.649,3.654-5.782,3.654-9.396
		c0-2.521-0.465-4.692-1.395-6.514c-0.963-1.822-2.31-3.315-4.041-4.478c-1.572-1.292-3.399-2.451-5.484-3.479
		c-2.116-0.927-4.265-1.841-6.445-2.735c-2.148-1.029-4.25-2.072-6.301-3.133c-2.021-1.093-3.881-2.385-5.58-3.877
		c-1.572-1.561-2.887-3.398-3.944-5.518c-1.06-2.156-1.588-4.693-1.588-7.607c0.128-6.465,2.355-11.157,6.682-14.074
		c4.135-2.852,8.606-4.276,13.415-4.276c2.563,0,4.663,0.196,6.297,0.591c1.57,0.426,2.852,0.966,3.846,1.62
		c1.025,0.558,1.906,1.063,2.645,1.521c0.736,0.524,1.522,0.79,2.355,0.79c0.384,0,0.72-0.23,1.009-0.688
		c0.193-0.328,0.354-0.734,0.482-1.225c0.126-1.113,0.448-1.715,0.96-1.814c0.802,0,1.203,0.58,1.203,1.736
		c0.064,4.961,0.16,9.834,0.289,14.63c0,1.357-0.353,2.036-1.059,2.036c-0.289,0-0.593-0.364-0.914-1.093
		c-0.385-0.695-0.738-1.56-1.06-2.587c-1.25-4.277-3.322-7.529-6.209-9.754c-2.984-2.188-6.177-3.284-9.579-3.284
		c-3.563,0.066-6.451,1.093-8.664,3.083c-2.439,2.089-3.658,4.723-3.658,7.908c0.064,4.375,1.971,7.674,5.723,9.892
		c1.699,1.16,3.64,2.255,5.819,3.282c2.083,0.996,4.281,2.007,6.59,3.034c4.713,1.888,8.881,4.41,12.505,7.558
		c1.699,1.626,3.047,3.582,4.041,5.868c0.993,2.321,1.492,5.106,1.492,8.352c-0.162,6.729-2.564,11.786-7.209,15.165
		c-4.582,3.483-10.348,5.223-17.3,5.223c-2.626-0.066-4.901-0.412-6.823-1.036c-1.891-0.59-3.525-1.264-4.902-2.02
		c-1.376-0.787-2.499-1.494-3.363-2.117c-0.832-0.527-1.617-0.79-2.354-0.79c-0.321,0-0.577,0.166-0.769,0.497
		c-0.192,0.364-0.402,0.745-0.625,1.143c-0.128,0.4-0.289,0.768-0.48,1.099c-0.256,0.431-0.577,0.646-0.961,0.646
		c-0.418,0-0.723-0.248-0.915-0.748c-0.257-0.331-0.385-0.729-0.385-1.195L-664.362,324.715L-664.362,324.715z"/>
	<path id="H" fill="#F47C20" d="M-568.772,320.069h-25.327v14.75c0,2.67,0.37,4.571,1.111,5.709
		c0.695,1.137,1.786,1.728,3.268,1.771c1.055,0,1.739,0.047,2.054,0.139c0.225,0.135,0.337,0.348,0.337,0.643
		c0,0.5-0.439,0.748-1.315,0.748c-2.561-0.095-5.573-0.16-9.036-0.204c-3.416,0.043-6.427,0.109-9.034,0.204
		c-0.878,0-1.315-0.248-1.315-0.748c-0.046-0.295,0.089-0.508,0.405-0.643c0.269-0.092,0.932-0.139,1.988-0.139
		c1.526-0.043,2.661-0.637,3.403-1.777c0.651-1.137,0.977-3.041,0.977-5.711v-30.101c0-2.766-0.326-4.713-0.977-5.852
		c-0.742-1.137-1.877-1.684-3.403-1.639c-1.057-0.044-1.72-0.133-1.988-0.271c-0.316-0.044-0.451-0.215-0.405-0.509
		c0-0.496,0.438-0.747,1.315-0.747c2.607,0.046,5.618,0.119,9.034,0.21c3.462-0.047,6.474-0.115,9.036-0.21
		c0.876,0,1.315,0.251,1.315,0.747c0,0.294-0.112,0.465-0.337,0.509c-0.315,0.136-0.999,0.227-2.054,0.271
		c-1.482-0.044-2.572,0.502-3.268,1.639c-0.741,1.138-1.111,3.09-1.111,5.855v13.069h25.327v-13.069
		c0-2.766-0.326-4.717-0.978-5.855c-0.719-1.137-1.841-1.684-3.368-1.639c-1.056-0.044-1.719-0.133-1.987-0.271
		c-0.338-0.044-0.484-0.215-0.438-0.509c0-0.496,0.438-0.747,1.314-0.747c2.626,0.046,5.648,0.119,9.062,0.21
		c3.437-0.047,6.446-0.115,9.028-0.21c0.876,0,1.315,0.251,1.315,0.747c0,0.294-0.124,0.465-0.373,0.509
		c-0.316,0.136-1.002,0.227-2.061,0.271c-1.464-0.044-2.546,0.502-3.245,1.639c-0.744,1.138-1.115,3.086-1.115,5.852v30.1
		c0,2.67,0.371,4.574,1.115,5.711c0.698,1.141,1.78,1.734,3.245,1.778c1.059,0,1.745,0.047,2.061,0.138
		c0.249,0.135,0.373,0.348,0.373,0.643c0,0.5-0.439,0.749-1.315,0.749c-2.582-0.095-5.592-0.161-9.028-0.205
		c-3.414,0.044-6.436,0.11-9.062,0.205c-0.876,0-1.314-0.249-1.314-0.749c-0.047-0.295,0.1-0.508,0.438-0.643
		c0.27-0.091,0.932-0.138,1.987-0.138c1.526-0.044,2.648-0.635,3.368-1.772c0.651-1.138,0.978-3.039,0.978-5.708V320.069z"/>
	<path id="A" fill="#F47C20" d="M-522.755,294.615h2.492l15.224,40.618c0.831,2.159,1.707,3.854,2.627,5.085
		c0.875,1.23,2.031,1.89,3.468,1.981c1.6,0.094,2.33,0.307,2.19,0.646c0,0.408-0.068,0.635-0.203,0.68
		c-0.18,0.135-0.617,0.204-1.313,0.204c-2.808-0.095-5.615-0.16-8.42-0.204c-2.809,0.043-5.614,0.109-8.421,0.204
		c-1.235,0.044-1.83-0.248-1.785-0.883c-0.089-0.387,0.696-0.6,2.357-0.646c2.155-0.094,3.211-1.043,3.166-2.859
		c-0.043-0.812-0.247-1.951-0.606-3.418c-0.428-1.484-0.944-2.961-1.55-4.427l-1.987-5.438h-17.513l-3.872,10.878
		c-0.225,0.604-0.338,1.312-0.338,2.129c0,1.093,0.416,1.859,1.246,2.299c0.741,0.467,1.639,0.742,2.695,0.837
		c1.28,0.138,1.874,0.353,1.785,0.646c0,0.408-0.066,0.635-0.202,0.68c-0.18,0.135-0.573,0.204-1.179,0.204
		c-2.157-0.095-4.313-0.16-6.467-0.204c-2.177,0.043-4.346,0.109-6.5,0.204c-0.878,0-1.293-0.295-1.246-0.883
		c-0.093-0.293,0.389-0.508,1.448-0.646c0.787-0.094,1.526-0.3,2.223-0.626c0.673-0.301,1.336-0.804,1.987-1.499
		c1.235-1.302,2.659-4.021,4.277-8.159L-522.755,294.615z M-524.002,303.364c-0.044,0-0.09,0-0.134,0l-8.15,20.851h16.032
		L-524.002,303.364z"/>
	<path id="R_1_" fill="#F47C20" d="M-483.009,304.723c0-2.766-0.316-4.721-0.947-5.863c-0.742-1.137-1.881-1.684-3.411-1.639
		c-1.06-0.044-1.724-0.133-1.995-0.271c-0.339-0.044-0.486-0.215-0.438-0.509c0-0.496,0.438-0.747,1.313-0.747
		c2.628,0.046,5.648,0.119,9.062,0.21c4.042-0.047,8.063-0.115,12.059-0.21c4.648,0,8.31,1.046,10.983,3.134
		c2.648,2.042,3.997,5.105,4.042,9.19c-0.271,4.223-1.574,7.168-3.909,8.838c-1.101,0.905-2.437,1.637-4.009,2.192
		c-1.528,0.582-3.235,1.081-5.122,1.499c5.025,5.939,10.063,11.856,15.111,17.75c0.741,0.768,1.616,1.531,2.625,2.297
		c0.921,0.811,1.739,1.357,2.458,1.637c1.166,0.18,1.75,0.532,1.75,1.051c0,0.364-0.394,0.547-1.179,0.547
		c-0.562,0-1.391-0.05-2.491-0.142c-1.054-0.047-2.086-0.068-3.097-0.068h-5.116c-4.309-5.66-8.651-11.282-13.027-16.872
		c-1.189-1.761-2.198-3.071-3.03-3.93c-0.831-0.765-1.886-1.148-3.163-1.148c-0.922,0.047-1.359,0.453-1.314,1.221v11.918
		c0,2.672,0.371,4.576,1.113,5.714c0.696,1.14,1.772,1.733,3.232,1.777c1.054,0,1.75,0.047,2.087,0.138
		c0.225,0.136,0.337,0.348,0.337,0.644c0,0.5-0.438,0.748-1.314,0.748c-2.582-0.095-5.591-0.16-9.027-0.205
		c-3.414,0.044-6.435,0.11-9.062,0.205c-0.876,0-1.314-0.248-1.314-0.748c-0.047-0.296,0.1-0.508,0.439-0.643
		c0.271-0.092,0.935-0.139,1.995-0.139c1.53-0.044,2.669-0.638,3.411-1.777c0.631-1.137,0.947-3.041,0.947-5.714L-483.009,304.723
		L-483.009,304.723z M-471.642,297.221c-2.806,0-4.209,0.502-4.209,1.502v21.214h3.166c4.332,0.049,7.531-0.768,9.595-2.44
		c1.929-1.7,2.896-4.791,2.896-9.282c-0.045-4.144-1.101-7.05-3.165-8.725C-465.47,297.977-468.23,297.221-471.642,297.221z"/>
	<path id="I" fill="#F47C20" d="M-430.215,304.711c0-2.766-0.325-4.713-0.977-5.852c-0.718-1.137-1.84-1.684-3.366-1.639
		c-1.054-0.044-1.717-0.133-1.986-0.271c-0.338-0.044-0.484-0.215-0.437-0.509c0-0.496,0.436-0.747,1.312-0.747
		c2.624,0.046,5.639,0.119,9.048,0.21c3.431-0.047,6.436-0.115,9.014-0.21c0.875,0,1.311,0.251,1.311,0.747
		c0,0.294-0.112,0.465-0.335,0.509c-0.337,0.136-1.032,0.227-2.085,0.271c-1.458-0.044-2.534,0.502-3.229,1.639
		c-0.739,1.138-1.11,3.086-1.11,5.852v30.1c0,2.67,0.371,4.574,1.11,5.711c0.696,1.141,1.772,1.734,3.229,1.778
		c1.053,0,1.748,0.047,2.085,0.138c0.224,0.135,0.335,0.348,0.335,0.643c0,0.5-0.436,0.749-1.311,0.749
		c-2.578-0.095-5.582-0.161-9.014-0.205c-3.409,0.044-6.424,0.11-9.048,0.205c-0.875,0-1.312-0.249-1.312-0.749
		c-0.047-0.295,0.099-0.508,0.437-0.643c0.269-0.091,0.932-0.138,1.986-0.138c1.526-0.044,2.648-0.638,3.366-1.775
		c0.652-1.14,0.977-3.044,0.977-5.714V304.711z"/>
	<path id="S" fill="#F47C20" d="M-407.29,330.387c0-0.813,0.325-1.22,0.978-1.22c0.628,0,0.965,0.453,1.01,1.358
		c0.158,0.768,0.505,1.811,1.045,3.136c0.47,1.394,1.212,2.82,2.222,4.283c1.01,1.394,2.345,2.589,4.007,3.589
		c1.548,1.093,3.501,1.64,5.86,1.64c3.569-0.05,6.228-1.047,7.979-2.995c1.706-1.858,2.559-4.049,2.559-6.578
		c0-1.764-0.324-3.284-0.976-4.56c-0.673-1.274-1.617-2.321-2.829-3.133c-1.101-0.905-2.379-1.717-3.838-2.438
		c-1.48-0.649-2.985-1.286-4.512-1.915c-1.504-0.718-2.976-1.449-4.413-2.191c-1.413-0.766-2.715-1.67-3.906-2.717
		c-1.1-1.088-2.021-2.376-2.76-3.861c-0.741-1.51-1.113-3.282-1.113-5.325c0.09-4.526,1.649-7.809,4.678-9.851
		c2.894-1.996,6.023-2.995,9.389-2.995c1.795,0,3.265,0.138,4.409,0.414c1.098,0.298,1.996,0.677,2.691,1.137
		c0.718,0.386,1.336,0.742,1.852,1.065c0.516,0.364,1.065,0.549,1.649,0.549c0.269,0,0.504-0.16,0.707-0.48
		c0.134-0.229,0.246-0.516,0.337-0.857c0.088-0.779,0.313-1.201,0.672-1.27c0.56,0,0.842,0.404,0.842,1.214
		c0.044,3.473,0.112,6.887,0.202,10.24c0,0.953-0.247,1.427-0.741,1.427c-0.202,0-0.416-0.257-0.641-0.765
		c-0.269-0.485-0.516-1.09-0.741-1.81c-0.876-2.996-2.325-5.271-4.346-6.83c-2.089-1.531-4.325-2.297-6.706-2.297
		c-2.492,0.045-4.516,0.766-6.066,2.156c-1.707,1.464-2.56,3.307-2.56,5.535c0.044,3.063,1.38,5.371,4.006,6.927
		c1.19,0.813,2.548,1.58,4.074,2.297c1.459,0.695,2.996,1.402,4.613,2.123c3.3,1.322,6.217,3.086,8.754,5.291
		c1.189,1.137,2.132,2.507,2.828,4.107c0.695,1.623,1.045,3.571,1.045,5.846c-0.113,4.711-1.796,8.251-5.046,10.615
		c-3.208,2.438-7.244,3.654-12.11,3.654c-1.84-0.043-3.431-0.287-4.776-0.723c-1.324-0.414-2.468-0.886-3.431-1.413
		c-0.965-0.552-1.75-1.049-2.355-1.484c-0.583-0.37-1.132-0.552-1.649-0.552c-0.224,0-0.403,0.115-0.537,0.348
		c-0.135,0.254-0.282,0.524-0.438,0.8c-0.091,0.281-0.203,0.536-0.337,0.769c-0.179,0.303-0.404,0.452-0.673,0.452
		c-0.291,0-0.505-0.174-0.641-0.521c-0.179-0.235-0.269-0.511-0.269-0.836V330.387L-407.29,330.387z"/>
	<path id="E_1_" fill="#F47C20" d="M-360.346,304.728c0-2.771-0.316-4.726-0.947-5.865c-0.742-1.14-1.881-1.687-3.411-1.642
		c-1.061-0.044-1.724-0.133-1.994-0.271c-0.34-0.044-0.486-0.215-0.439-0.509c0-0.496,0.437-0.747,1.314-0.747
		c5.48,0.046,10.961,0.119,16.442,0.21c5.525-0.047,10.927-0.115,16.206-0.21c0.697-0.047,1.067,0.235,1.112,0.837v8.063
		c0,0.949-0.26,1.402-0.775,1.355c-0.494,0-0.809-0.337-0.943-1.014c-0.203-2.955-1.078-4.955-2.627-6.003
		c-1.574-1.048-4.336-1.546-8.289-1.501c-1.887,0-3.403,0-4.549,0s-2,0.047-2.562,0.138c-0.538,0.05-0.909,0.142-1.111,0.281
		c-0.181,0.255-0.271,0.524-0.271,0.8v19.377c2.584,0.044,4.998-0.431,7.244-1.433c1.146-0.582,2.066-1.35,2.763-2.306
		c0.696-0.904,1.089-2.069,1.178-3.488c0.09-0.999,0.202-1.664,0.337-1.99c0.136-0.257,0.372-0.383,0.708-0.383
		c0.583,0,0.876,0.29,0.876,0.869c-0.046,2.945-0.114,5.915-0.204,8.906c0.044,2.949,0.112,5.915,0.204,8.907
		c0,0.558-0.249,0.837-0.742,0.837c-0.247,0.069-0.438-0.072-0.573-0.42c-0.18-0.325-0.381-0.988-0.606-1.984
		c-0.472-2.277-1.482-3.822-3.032-4.635c-1.572-0.768-3.504-1.15-5.795-1.15h-2.358v13.136c0,1.557,0.113,2.914,0.338,4.076
		c0.292,1.14,0.752,2.079,1.38,2.823c1.259,1.532,4.157,2.3,8.695,2.3c1.168,0,2.235-0.069,3.201-0.21
		c0.966-0.092,1.808-0.232,2.527-0.417c1.528-0.397,2.774-0.931,3.74-1.604c1.842-1.372,2.92-3.216,3.235-5.54
		c0.225-1.348,0.617-1.999,1.178-1.951c0.36,0,0.562,0.29,0.607,0.87c0,0.809-0.046,1.917-0.136,3.328
		c-0.179,1.529-0.269,2.837-0.269,3.925v2.43c0,0.601-0.372,0.905-1.112,0.905c-5.974-0.095-11.972-0.16-17.992-0.204
		c-5.976,0.043-11.985,0.109-18.027,0.204c-0.877,0-1.313-0.251-1.313-0.751c-0.047-0.293,0.099-0.508,0.438-0.64
		c0.271-0.095,0.934-0.139,1.994-0.139c1.531-0.043,2.669-0.638,3.412-1.777c0.631-1.137,0.947-3.041,0.947-5.714v-30.081H-360.346z
		"/>
	<path id="M" fill="#F47C20" d="M-280.176,288.037c0-3.95-0.45-6.738-1.352-8.361c-1.062-1.625-2.687-2.406-4.875-2.34
		c-1.514-0.064-2.463-0.193-2.848-0.386c-0.485-0.067-0.694-0.307-0.628-0.729c0-0.709,0.627-1.064,1.878-1.064
		c2.442,0.066,4.883,0.164,7.323,0.297c2.44-0.066,4.865-0.165,7.274-0.297h1.685c0.932,0,1.526,0.33,1.783,0.992l21.728,52.151
		l21.484-51.644c0.322-0.998,0.883-1.5,1.687-1.5c2.694,0.066,5.391,0.164,8.087,0.297c2.697-0.066,5.392-0.165,8.089-0.297
		c1.252,0,1.878,0.355,1.878,1.064c0,0.423-0.178,0.662-0.532,0.729c-0.451,0.192-1.434,0.321-2.946,0.386
		c-2.124-0.066-3.669,0.715-4.636,2.34c-1.063,1.623-1.593,4.411-1.593,8.361v42.998c0,3.816,0.53,6.536,1.593,8.162
		c0.966,1.626,2.512,2.474,4.636,2.539c1.513,0,2.496,0.066,2.946,0.193c0.354,0.193,0.532,0.502,0.532,0.922
		c0,0.709-0.627,1.065-1.878,1.065c-3.692-0.13-7.994-0.227-12.905-0.293c-4.879,0.066-9.197,0.162-12.952,0.293
		c-1.253,0-1.878-0.356-1.878-1.065c-0.066-0.42,0.142-0.729,0.627-0.922c0.385-0.127,1.331-0.193,2.841-0.193
		c2.184-0.066,3.79-0.913,4.816-2.539c0.936-1.623,1.404-4.346,1.404-8.162v-45.908h-0.199l-23.892,57.156
		c-0.256,0.889-0.61,1.336-1.06,1.336c-0.546,0-0.98-0.414-1.3-1.242l-23.653-58.322h-0.191v46.98c0,3.816,0.513,6.536,1.541,8.162
		c0.995,1.626,2.552,2.474,4.671,2.539c1.509,0,2.488,0.066,2.938,0.193c0.321,0.193,0.482,0.502,0.482,0.922
		c0,0.709-0.627,1.065-1.879,1.065c-3.083-0.13-6.166-0.227-9.25-0.293c-3.084,0.066-6.184,0.162-9.299,0.293
		c-1.253,0-1.879-0.356-1.879-1.065c-0.066-0.42,0.144-0.729,0.628-0.922c0.385-0.127,1.335-0.193,2.849-0.193
		c2.188-0.066,3.813-0.913,4.875-2.539c0.901-1.623,1.351-4.346,1.351-8.162L-280.176,288.037L-280.176,288.037z"/>
	<path id="O_1_" fill="#F47C20" d="M-195.869,319.761c0.044-7.511,2.458-13.564,7.24-18.155c4.694-4.611,10.833-6.941,18.423-6.99
		c7.635,0.049,13.796,2.379,18.487,6.99c4.739,4.591,7.132,10.645,7.177,18.155c-0.044,7.443-2.438,13.447-7.177,18.016
		c-4.692,4.662-10.853,7.035-18.487,7.129c-7.591-0.094-13.729-2.467-18.423-7.129
		C-193.411,333.208-195.825,327.204-195.869,319.761z M-187.321,319.761c0,5.992,1.404,11.344,4.213,16.059
		c2.761,4.902,7.061,7.42,12.901,7.561c5.841-0.141,10.163-2.658,12.971-7.561c2.763-4.714,4.143-10.066,4.143-16.059
		c0-6.037-1.38-11.436-4.143-16.197c-2.808-4.809-7.129-7.282-12.971-7.42c-5.84,0.138-10.141,2.611-12.901,7.42
		C-185.917,308.325-187.321,313.724-187.321,319.761z"/>
	<path id="O" fill="#F47C20" d="M-136.537,319.761c0.043-7.511,2.457-13.564,7.24-18.155c4.695-4.611,10.834-6.941,18.424-6.99
		c7.632,0.049,13.796,2.379,18.488,6.99c4.737,4.591,7.13,10.645,7.174,18.155c-0.044,7.443-2.438,13.447-7.174,18.016
		c-4.692,4.662-10.855,7.035-18.488,7.129c-7.59-0.094-13.729-2.467-18.424-7.129C-134.081,333.208-136.494,327.204-136.537,319.761
		z M-127.989,319.761c0,5.992,1.405,11.344,4.212,16.059c2.763,4.902,7.063,7.42,12.903,7.561
		c5.838-0.141,10.163-2.658,12.967-7.561c2.766-4.714,4.146-10.066,4.146-16.059c0-6.037-1.38-11.436-4.146-16.197
		c-2.805-4.809-7.129-7.282-12.967-7.42c-5.84,0.138-10.141,2.611-12.903,7.42C-126.584,308.325-127.989,313.724-127.989,319.761z"
		/>
	<path id="R" fill="#F47C20" d="M-69.868,304.723c0-2.766-0.315-4.721-0.944-5.863c-0.745-1.137-1.883-1.684-3.411-1.639
		c-1.06-0.044-1.726-0.133-1.996-0.271c-0.34-0.044-0.487-0.215-0.439-0.509c0-0.496,0.436-0.747,1.314-0.747
		c2.627,0.046,5.647,0.119,9.062,0.21c4.043-0.047,8.063-0.115,12.06-0.21c4.648,0,8.309,1.046,10.982,3.134
		c2.647,2.042,3.997,5.105,4.043,9.19c-0.271,4.223-1.573,7.168-3.908,8.838c-1.104,0.905-2.44,1.637-4.012,2.192
		c-1.525,0.582-3.235,1.081-5.12,1.499c5.023,5.939,10.061,11.856,15.109,17.75c0.74,0.768,1.618,1.531,2.625,2.297
		c0.919,0.811,1.739,1.357,2.459,1.637c1.165,0.18,1.75,0.532,1.75,1.051c0,0.364-0.395,0.547-1.182,0.547
		c-0.56,0-1.391-0.05-2.49-0.142c-1.053-0.047-2.086-0.068-3.097-0.068h-5.117c-4.306-5.66-8.65-11.282-13.025-16.872
		c-1.189-1.761-2.2-3.071-3.029-3.93c-0.833-0.765-1.888-1.148-3.163-1.148c-0.922,0.047-1.361,0.453-1.314,1.221v11.918
		c0,2.672,0.371,4.576,1.11,5.714c0.695,1.14,1.772,1.733,3.234,1.777c1.055,0,1.75,0.047,2.087,0.138
		c0.223,0.136,0.337,0.348,0.337,0.644c0,0.5-0.439,0.748-1.314,0.748c-2.584-0.095-5.592-0.16-9.028-0.205
		c-3.415,0.044-6.435,0.11-9.062,0.205c-0.878,0-1.314-0.248-1.314-0.748c-0.047-0.296,0.099-0.508,0.439-0.643
		c0.27-0.092,0.936-0.139,1.996-0.139c1.528-0.044,2.667-0.638,3.411-1.777c0.629-1.137,0.944-3.041,0.944-5.714v-30.085H-69.868z
		 M-58.501,297.221c-2.805,0-4.207,0.502-4.207,1.502v21.214h3.164c4.333,0.049,7.533-0.768,9.598-2.44
		c1.929-1.7,2.895-4.791,2.895-9.282c-0.043-4.144-1.098-7.05-3.163-8.725C-52.327,297.977-55.089,297.221-58.501,297.221z"/>
	<path id="E" fill="#F47C20" d="M-18.428,304.728c0-2.771-0.318-4.726-0.95-5.865c-0.74-1.14-1.879-1.687-3.411-1.642
		c-1.061-0.044-1.723-0.133-1.994-0.271c-0.34-0.044-0.486-0.215-0.439-0.509c0-0.496,0.439-0.747,1.314-0.747
		c5.479,0.046,10.96,0.119,16.442,0.21c5.525-0.047,10.928-0.115,16.208-0.21c0.696-0.047,1.066,0.235,1.109,0.837v8.063
		c0,0.949-0.259,1.402-0.772,1.355c-0.497,0-0.811-0.337-0.944-1.014c-0.204-2.955-1.077-4.955-2.628-6.003
		c-1.573-1.048-4.336-1.546-8.289-1.501c-1.885,0-3.403,0-4.549,0c-1.145,0-2,0.047-2.561,0.138
		c-0.538,0.05-0.908,0.142-1.112,0.281c-0.18,0.255-0.271,0.524-0.271,0.8v19.377c2.584,0.044,4.999-0.431,7.246-1.433
		c1.146-0.582,2.067-1.35,2.763-2.306c0.696-0.904,1.087-2.069,1.179-3.488c0.091-0.999,0.201-1.664,0.337-1.99
		c0.136-0.257,0.373-0.383,0.71-0.383c0.582,0,0.875,0.29,0.875,0.869c-0.047,2.945-0.113,5.915-0.202,8.906
		c0.044,2.949,0.111,5.915,0.202,8.907c0,0.558-0.248,0.837-0.742,0.837c-0.249,0.069-0.436-0.072-0.574-0.42
		c-0.177-0.325-0.381-0.988-0.604-1.984c-0.472-2.277-1.482-3.822-3.034-4.635c-1.571-0.768-3.503-1.15-5.794-1.15h-2.36v13.136
		c0,1.557,0.116,2.914,0.339,4.076c0.291,1.14,0.753,2.079,1.38,2.823c1.259,1.532,4.157,2.3,8.695,2.3
		c1.167,0,2.233-0.069,3.199-0.21c0.966-0.092,1.811-0.232,2.528-0.417c1.529-0.397,2.774-0.931,3.74-1.604
		c1.841-1.372,2.92-3.216,3.234-5.54c0.224-1.348,0.616-1.999,1.179-1.951c0.358,0,0.563,0.29,0.607,0.87
		c0,0.809-0.044,1.917-0.135,3.328c-0.179,1.529-0.268,2.837-0.268,3.925v2.43c0,0.601-0.372,0.905-1.114,0.905
		c-5.973-0.095-11.972-0.16-17.991-0.204c-5.976,0.043-11.985,0.109-18.027,0.204c-0.875,0-1.314-0.251-1.314-0.751
		c-0.046-0.293,0.1-0.508,0.439-0.64c0.271-0.095,0.934-0.139,1.994-0.139c1.532-0.043,2.671-0.638,3.411-1.777
		c0.632-1.137,0.95-3.041,0.95-5.714v-30.081H-18.428z"/>
</g>
<g id="foundation">
	<path id="balance" d="M-33.422,253.27l-61.001-132.762c0.321-1.339,0.495-2.734,0.495-4.171c0-9.867-7.999-17.866-17.866-17.866
		c-9.867,0-17.867,7.999-17.867,17.866c0,2.554,0.54,4.98,1.505,7.177l-59.62,129.756l22.437,0.187l52.688-119.275
		c0.284,0.014,0.569,0.021,0.856,0.021c1.069,0,2.115-0.099,3.133-0.28l52.802,119.533L-33.422,253.27z"/>
	<path id="wheel" d="M-12.095,119.664c0-54.395-44.253-98.648-98.648-98.648c-54.395,0-98.648,44.254-98.648,98.648
		s44.254,98.649,98.648,98.649c30.572,0,57.939-13.979,76.047-35.881l0.513,0.438l1.309-1.528l-0.556-0.478
		C-20.081,164.033-12.095,142.765-12.095,119.664z M-36.488,178.245l-71.551-61.283h91.877c0.025,0.898,0.042,1.798,0.042,2.702
		C-16.122,141.766-23.741,162.121-36.488,178.245z M-108.165,114.949l67.396-58.915c14.316,15.73,23.416,36.29,24.53,58.915
		H-108.165z M-42.141,54.561l-67.774,59.245V25.052C-83.27,25.282-59.218,36.576-42.141,54.561z M-111.928,25.057v88.575
		l-68.105-58.332C-162.994,36.969-138.792,25.388-111.928,25.057z M-113.484,114.949h-91.764
		c1.098-22.266,9.931-42.529,23.859-58.161L-113.484,114.949z M-205.324,116.962h91.798l-70.907,61.984
		c-13.085-16.231-20.932-36.856-20.932-59.282C-205.365,118.76-205.35,117.86-205.324,116.962z M-183.153,180.502l71.226-62.264
		v96.033C-140.478,213.918-166.02,200.861-183.153,180.502z M-109.915,214.275v-96.27l72.163,61.808
		C-54.958,200.654-80.9,214.025-109.915,214.275z"/>
</g>
<g id="cabins">
	<g id="seven">
		<path d="M-181.713,122.33v-5.368h-42.944v5.368h1.342v15.433h-0.108c0,0,1.621,8.717,3.891,10.338
			c2.269,1.621,34.044,1.584,36.314-0.037s1.297-10.301,1.297-10.301h-0.462V122.33L-181.713,122.33L-181.713,122.33z
			 M-222.645,137.763V122.33h3.355v15.433H-222.645z M-218.618,137.763V122.33h33.55v15.433H-218.618z M-184.397,137.763V122.33
			h1.342v15.433H-184.397z"/>
		<g>
			
				<rect x="-220.667" y="143.698" transform="matrix(0.4228 0.9062 -0.9062 0.4228 4.7567 280.5988)" fill="#FFFFFF" width="5.553" height="0.671"/>
		</g>
	</g>
	<g id="six">
		<path d="M8.183,122.33v-5.368h-42.945v5.368h1.342v15.433h-0.108c0,0,1.621,8.717,3.891,10.338
			c2.269,1.621,34.043,1.584,36.314-0.037c2.27-1.621,1.296-10.301,1.296-10.301H7.512V122.33L8.183,122.33L8.183,122.33z
			 M-32.749,137.763V122.33h3.355v15.433H-32.749z M-28.723,137.763V122.33H4.828v15.433H-28.723z M5.499,137.763V122.33H6.84
			v15.433H5.499z"/>
		<g>
			
				<rect x="-30.77" y="143.69" transform="matrix(0.4229 0.9062 -0.9062 0.4229 114.3568 108.4802)" fill="#FFFFFF" width="5.553" height="0.671"/>
		</g>
	</g>
	<g id="five">
		<path d="M-11.948,184.734v-5.369h-42.944v5.369h1.342v15.433h-0.108c0,0,1.621,8.717,3.891,10.338
			c2.269,1.621,34.043,1.584,36.314-0.037c2.27-1.621,1.296-10.302,1.296-10.302h-0.462v-15.434L-11.948,184.734L-11.948,184.734z
			 M-52.879,200.167v-15.433h3.355v15.433H-52.879z M-48.853,200.167v-15.433h33.55v15.433H-48.853z M-14.632,200.167v-15.433h1.342
			v15.433H-14.632z"/>
		<g>
			
				<rect x="-50.9" y="206.094" transform="matrix(0.4229 0.9062 -0.9062 0.4229 159.292 162.7485)" fill="#FFFFFF" width="5.554" height="0.671"/>
		</g>
	</g>
	<g id="four">
		<path d="M-87.101,222.981v-5.368h-42.945v5.368h1.342v15.433h-0.109c0,0,1.621,8.717,3.891,10.338
			c2.27,1.621,34.044,1.584,36.315-0.037c2.27-1.621,1.296-10.303,1.296-10.303h-0.461v-15.433h0.67V222.981L-87.101,222.981z
			 M-128.032,238.414v-15.433h3.355v15.433H-128.032z M-124.006,238.414v-15.433h33.551v15.433H-124.006z M-89.785,238.414v-15.433
			h1.342v15.433H-89.785z"/>
		<g>
			
				<rect x="-126.052" y="244.341" transform="matrix(0.423 0.9061 -0.9061 0.423 150.578 252.885)" fill="#FFFFFF" width="5.552" height="0.671"/>
		</g>
	</g>
	<g id="three">
		<path d="M-164.938,184.734v-5.369h-42.945v5.369h1.342v15.433h-0.109c0,0,1.621,8.717,3.891,10.338
			c2.27,1.621,34.044,1.584,36.314-0.037s1.297-10.302,1.297-10.302h-0.461v-15.434L-164.938,184.734L-164.938,184.734z
			 M-205.869,200.167v-15.433h3.355v15.433H-205.869z M-201.843,200.167v-15.433h33.551v15.433H-201.843z M-167.622,200.167v-15.433
			h1.342v15.433H-167.622z"/>
		<g>
			
				<rect x="-203.884" y="206.102" transform="matrix(0.4229 0.9062 -0.9062 0.4229 71.0052 301.3867)" fill="#FFFFFF" width="5.554" height="0.671"/>
		</g>
	</g>
	<g id="two">
		<path d="M-11.277,56.571v-5.368h-42.944v5.368h1.342v15.433h-0.108c0,0,1.621,8.717,3.891,10.338
			c2.269,1.621,34.043,1.583,36.314-0.038c2.27-1.621,1.296-10.301,1.296-10.301h-0.462V56.571H-11.277z M-52.208,72.004V56.571
			h3.355v15.433H-52.208z M-48.182,72.004V56.571h33.55v15.433H-48.182z M-12.619,72.004h-1.342V56.571h1.342V72.004z"/>
		<g>
			
				<rect x="-50.224" y="77.93" transform="matrix(0.4229 0.9062 -0.9062 0.4229 43.5408 88.1609)" fill="#FFFFFF" width="5.553" height="0.671"/>
		</g>
	</g>
	<g id="one">
		<path d="M-161.583,56.571v-5.368h-42.945v5.368h1.342v15.433h-0.109c0,0,1.621,8.717,3.891,10.338
			c2.27,1.621,34.044,1.583,36.314-0.038s1.297-10.301,1.297-10.301h-0.461V56.571H-161.583z M-202.514,72.004V56.571h3.355v15.433
			H-202.514z M-198.488,72.004V56.571h33.551v15.433H-198.488z M-164.267,72.004V56.571h1.342v15.433H-164.267z"/>
		<g>
			
				<rect x="-200.534" y="77.933" transform="matrix(0.4228 0.9062 -0.9062 0.4228 -43.214 224.385)" fill="#FFFFFF" width="5.554" height="0.671"/>
		</g>
	</g>
	<g id="tilted">
		<path d="M-87.407,18.947l-0.343,0.457l-12.335-9.277l0.403-0.536l-4.291-3.226l-25.811,34.322l4.292,3.226l0.806-1.072
			l12.335,9.276l0,0c0.013,0.007,7.931,3.935,10.59,3.096c2.659-0.84,21.715-26.267,21.784-29.055
			C-79.907,23.369-87.407,18.947-87.407,18.947z M-111.948,51.582l-12.334-9.276l2.017-2.682l12.334,9.275l0.403-0.536
			l-12.334-9.275l20.164-26.814l12.336,9.276l0.404-0.536l-12.336-9.276l0.806-1.073l12.335,9.277l0.326-0.434L-111.948,51.582z"/>
		<g>
			
				<rect x="-106.836" y="51.081" transform="matrix(0.9784 0.2067 -0.2067 0.9784 8.3814 22.6222)" fill="#FFFFFF" width="5.553" height="0.671"/>
		</g>
	</g>
</g>
</svg>
