<svg version="1.1" id="Layer_1" xmlns="http://www.w3.org/2000/svg" xmlns:xlink="http://www.w3.org/1999/xlink" x="0px" y="0px"
	 width="100%" height="100%" viewBox="0 0 57.333 36.666" enable-background="new 0 0 57.333 36.666" xml:space="preserve">
<g>
	<defs>
		<rect id="SVGID_1_" x="-150" y="-252.108" width="195.59" height="198.894"/>
	</defs>
	<clipPath id="SVGID_2_">
		<use xlink:href="#SVGID_1_"  overflow="visible"/>
	</clipPath>
	<g display="none" clip-path="url(#SVGID_2_)">
		<g display="inline">
			<g>
				<path fill="#EE7709" d="M1.483,16.788l-1.723-0.293l0.412-1.021l4.588,0.781l-0.412,1.02l-1.723-0.293l-3.823,9.644L-2.34,26.43
					L1.483,16.788z"/>
				<path fill="#EE7709" d="M10.789,17.282L6.553,27.945L5.411,27.75l4.235-10.663L10.789,17.282z"/>
				<path fill="#EE7709" d="M12.151,28.898l4.235-10.663l1.392,0.236l-0.813,6.576c-0.177,1.437-0.251,1.969-0.326,2.314
					l0.033,0.006c0.524-1.479,1.096-3.035,1.781-4.76l1.493-3.767l1.11,0.188l-4.236,10.663l-1.357-0.231l0.813-6.576
					c0.174-1.521,0.287-2.286,0.33-2.534l-0.018-0.003c-0.454,1.371-1.057,3.007-1.813,4.941l-1.516,3.797L12.151,28.898z"/>
				<path fill="#EE7709" d="M27.407,29.876c-0.025,0.046-0.474,1.181-0.616,1.515l-0.943-0.161c0.03-0.183,0.182-0.667,0.29-0.905
					c-0.568,0.738-1.21,0.902-1.856,0.792c-1.523-0.259-1.651-1.509-0.93-3.346l2.037-5.157c0.747-1.884,1.575-2.749,3.18-2.459
					c2.001,0.359,1.877,1.99,1.39,3.151l-0.09,0.224l-1.143-0.194l0.095-0.257c0.351-0.963,0.403-1.771-0.54-1.933
					c-0.662-0.112-1.146,0.231-1.713,1.651l-2.048,5.223c-0.502,1.244-0.529,2.007,0.332,2.153c0.993,0.169,1.505-0.73,2.19-2.455
					l0.519-1.344l-1.242-0.211l0.388-0.975l2.385,0.406L27.407,29.876z"/>
				<path fill="#EE7709" d="M-2.688,41.98l-1.882,3.345l-1.192-0.203c1.04-1.801,4.799-8.369,5.974-10.367l1.707,0.29l-2.431,10.971
					l-1.159-0.197l0.805-3.528L-2.688,41.98z M-0.621,41.242c0.5-2.13,0.975-4.315,1.248-5.326l-0.049-0.009
					c-0.338,0.777-1.644,3.146-2.723,5.076L-0.621,41.242z"/>
				<path fill="#EE7709" d="M9.831,44.725l-0.084,0.19c-0.602,1.431-1.242,2.788-3.146,2.464c-1.756-0.299-1.952-1.543-1.258-3.315
					l2.081-5.219c0.78-1.98,1.592-2.746,3.05-2.497c2.037,0.347,1.888,1.924,1.325,3.225l-0.087,0.207l-1.143-0.194l0.101-0.29
					c0.413-1.021,0.509-1.787-0.436-1.948C9.489,37.22,9.1,37.802,8.661,38.885L6.49,44.328c-0.513,1.31-0.433,1.937,0.413,2.081
					c0.761,0.129,1.142-0.505,1.612-1.565l0.14-0.318L9.831,44.725z"/>
			</g>
			<g>
				<path fill="#FFD614" d="M35.838,32.93l3.875-15.604l1.656,0.282c-0.968,3.682-2.803,10.6-3.628,12.87l0.047,0.008
					c1.157-2.36,4.893-8.712,6.87-12.318l1.609,0.274c-0.925,3.713-2.503,10.408-3.333,12.993l0.071,0.012
					c1.078-2.47,4.592-8.811,6.503-12.453l1.727,0.294l-8.394,14.835l-1.774-0.303c0.896-3.548,2.343-9.754,3.098-12.328
					l-0.027,0.02c-1.352,2.644-4.622,8.271-6.572,11.713L35.838,32.93z"/>
				<path fill="#FFD614" d="M56.585,25.079l1.756,0.3c1.656,0.281,2.097,1.396,1.489,2.963l-0.245,0.64
					c-0.58,1.503-1.294,1.791-1.932,1.836c0.54,0.433,0.656,1.15,0.068,2.602c-0.34,0.896-0.947,2.36-1.082,3.054l-1.144-0.194
					c0.139-0.71,0.718-2.11,1.2-3.34c0.516-1.327,0.304-1.789-0.673-1.956l-0.53-0.09l-2.001,5.045l-1.143-0.195L56.585,25.079z
					 M55.878,29.936l0.48,0.081c1.209,0.206,1.654-0.11,2.092-1.28l0.235-0.676c0.352-0.963,0.265-1.557-0.729-1.726l-0.612-0.104
					L55.878,29.936z"/>
			</g>
			<g>
				<path fill="#1C1B1A" d="M48.218-8.914l2.508,0.427c2.366,0.403,2.997,1.995,2.129,4.233l-0.352,0.914
					c-0.828,2.147-1.848,2.559-2.76,2.622C50.515-0.098,50.682,0.928,49.842,3c-0.486,1.28-1.354,3.373-1.547,4.363l-1.633-0.278
					c0.197-1.014,1.025-3.015,1.714-4.772c0.736-1.896,0.436-2.556-0.961-2.793l-0.757-0.129l-2.859,7.207L42.167,6.32L48.218-8.914
					z M47.208-1.977l0.687,0.117c1.728,0.294,2.363-0.157,2.989-1.828l0.335-0.966c0.502-1.376,0.379-2.225-1.041-2.466
					l-0.876-0.149L47.208-1.977z"/>
				<path fill="#1C1B1A" d="M61.473,4.069l-2.385-0.406l-1.649,4.184l2.832,0.482L59.729,9.31l-3.842-0.654l4.234-10.662
					l3.678,0.626l-0.41,1.003l-2.533-0.431l-1.354,3.45l2.385,0.406L61.473,4.069z"/>
			</g>
		</g>
	</g>
</g>
<g>
	<rect x="4" y="5" fill="#F47C20" width="49" height="8"/>
	<rect x="4" y="15" fill="#F47C20" width="49" height="8"/>
	<rect x="4" y="25" fill="#F47C20" width="49" height="8"/>
</g>
</svg>
