<?xml version="1.0" encoding="utf-8"?>
<!-- Generator: Adobe Illustrator 16.0.0, SVG Export Plug-In . SVG Version: 6.00 Build 0)  -->
<!DOCTYPE svg PUBLIC "-//W3C//DTD SVG 1.1//EN" "http://www.w3.org/Graphics/SVG/1.1/DTD/svg11.dtd">
<svg version="1.1" id="Layer_1" xmlns="http://www.w3.org/2000/svg" xmlns:xlink="http://www.w3.org/1999/xlink" x="0px" y="0px"
	 width="515.385px" height="63.846px" viewBox="0 0 515.385 63.846" enable-background="new 0 0 515.385 63.846"
	 xml:space="preserve">
<g id="tagline">
	<path id="C_2_" fill="#FED831" d="M26.26,40.482v1.656c0,6.12-1.08,12.817-9.792,12.817c-8.353,0-9.793-5.905-9.793-12.962V17.513
		c0-7.705,3.313-11.953,9.865-11.953c8.065,0,9.505,5.761,9.505,12.024v1.873H20.86v-2.232c0-3.816-0.648-6.984-4.392-6.984
		c-3.601,0-4.537,2.88-4.537,7.128v24.914c0,4.825,1.08,7.993,4.681,7.993c3.744,0,4.392-3.24,4.392-7.776v-2.017H26.26z"/>
	<path id="O" fill="#FED831" d="M43.956,28.906v16.984c0,5.897-2.47,8.87-7.459,8.87c-5.242,0-7.157-3.326-7.157-8.819V28.906
		c0-5.695,2.621-8.72,7.358-8.72C41.688,20.187,43.956,23.614,43.956,28.906z M33.019,28.755v17.438c0,3.83,1.361,5.292,3.629,5.292
		c2.369,0,3.629-1.462,3.629-5.443V28.755c0-3.578-1.209-5.292-3.679-5.292C34.178,23.463,33.019,25.076,33.019,28.755z"/>
	<path id="N_2_" fill="#FED831" d="M48.139,54.308V20.641h4.284l5.695,20.664c0.756,2.62,1.109,4.586,1.361,5.947h0.101
		c-0.201-4.536-0.252-9.273-0.252-14.717V20.641h3.377v33.667h-4.133l-6.351-23.537c-0.504-1.713-0.706-3.074-0.907-3.981h-0.05
		c0.202,4.032,0.303,9.425,0.303,15.523v11.995H48.139z"/>
	<path id="J" fill="#FED831" d="M73.236,47.453c0,3.83-0.403,7.258-5.493,7.258c-0.706,0-1.664-0.051-2.167-0.151v-3.125
		c0.303,0.051,0.857,0.101,1.563,0.101c1.814,0,2.52-0.604,2.52-3.527V20.641h3.578V47.453z"/>
	<path id="U" fill="#FED831" d="M81.401,20.641v26.157c0,2.772,0.958,4.688,3.528,4.688s3.427-1.814,3.427-4.637V20.641h3.629
		v26.057c0,5.191-2.369,8.063-7.157,8.063c-4.637,0-7.005-2.62-7.005-7.963V20.641H81.401z"/>
	<path id="R_1_" fill="#FED831" d="M96.773,20.641h5.896c5.09,0,7.56,2.167,7.56,7.762v1.512c0,4.587-1.613,6.451-3.427,7.106
		c2.117,0.807,3.125,2.419,3.125,6.904c0,2.873-0.05,8.266,0.353,10.383h-3.528c-0.403-2.117-0.353-7.762-0.353-10.13
		c0-4.335-0.605-5.595-3.932-5.595h-2.066v15.725h-3.628V20.641z M100.401,35.559h2.167c3.226,0,4.032-1.864,4.032-5.442v-1.513
		c0-3.074-0.806-4.938-4.183-4.938h-2.016V35.559z"/>
	<path id="I_3_" fill="#FED831" d="M117.99,20.641v33.667h-3.628V20.641H117.99z"/>
	<path id="N_1_" fill="#FED831" d="M122.93,54.308V20.641h4.284l5.695,20.664c0.756,2.62,1.109,4.586,1.361,5.947h0.101
		c-0.201-4.536-0.252-9.273-0.252-14.717V20.641h3.377v33.667h-4.133l-6.351-23.537c-0.504-1.713-0.706-3.074-0.907-3.981h-0.05
		c0.202,4.032,0.303,9.425,0.303,15.523v11.995H122.93z"/>
	<path id="G" fill="#FED831" d="M155.891,54.308h-2.822c-0.101-0.555-0.202-2.167-0.252-2.923c-0.807,2.52-2.722,3.376-4.939,3.376
		c-4.637,0-6.199-3.427-6.199-8.819V29.107c0-5.544,2.268-8.921,7.208-8.921c5.896,0,6.955,4.133,6.955,8.417v0.857h-3.579v-0.907
		c0-2.369-0.302-5.091-3.376-5.091c-2.369,0-3.528,1.462-3.528,5.292v17.388c0,3.276,0.857,5.393,3.327,5.393
		c3.074,0,3.629-2.822,3.629-7.105v-5.394h-3.78v-3.124h7.358V54.308z"/>
	<path id="C_1_" fill="#FED831" d="M189.71,40.482v1.656c0,6.12-1.08,12.817-9.792,12.817c-8.353,0-9.793-5.905-9.793-12.962V17.513
		c0-7.705,3.312-11.953,9.865-11.953c8.065,0,9.505,5.761,9.505,12.024v1.873h-5.185v-2.232c0-3.816-0.648-6.984-4.392-6.984
		c-3.601,0-4.537,2.88-4.537,7.128v24.914c0,4.825,1.08,7.993,4.681,7.993c3.744,0,4.392-3.24,4.392-7.776v-2.017H189.71z"/>
	<path id="R" fill="#FED831" d="M193.546,20.641h5.896c5.09,0,7.56,2.167,7.56,7.762v1.512c0,4.587-1.613,6.451-3.427,7.106
		c2.117,0.807,3.125,2.419,3.125,6.904c0,2.873-0.05,8.266,0.353,10.383h-3.528c-0.403-2.117-0.353-7.762-0.353-10.13
		c0-4.335-0.604-5.595-3.931-5.595h-2.066v15.725h-3.628V20.641z M197.174,35.559h2.167c3.226,0,4.032-1.864,4.032-5.442v-1.513
		c0-3.074-0.806-4.938-4.183-4.938h-2.016V35.559z"/>
	<path id="E_1_" fill="#FED831" d="M222.273,38.028h-7.56v13.003h8.568l-0.454,3.276h-11.692V20.641h11.542v3.326h-7.963v10.735
		h7.56V38.028z"/>
	<path id="A" fill="#FED831" d="M230.487,43.572l-1.613,10.735h-3.629l5.544-33.667h5.09l5.796,33.667h-3.78l-1.713-10.735H230.487z
		 M235.729,40.246c-1.21-7.409-2.016-13.104-2.369-16.279h-0.151c-0.101,2.57-1.311,10.131-2.218,16.279H235.729z"/>
	<path id="T_1_" fill="#FED831" d="M245.607,23.967h-5.443v-3.326h14.465v3.326h-5.443v30.341h-3.578V23.967z"/>
	<path id="I_2_" fill="#FED831" d="M260.576,20.641v33.667h-3.629V20.641H260.576z"/>
	<path id="V" fill="#FED831" d="M267.38,20.641l2.269,15.069c0.654,4.737,1.662,10.483,1.965,13.961h0.051
		c0.303-3.377,1.311-9.122,2.016-13.81l2.268-15.221h3.831l-5.897,33.667h-4.484l-5.897-33.667H267.38z"/>
	<path id="I_1_" fill="#FED831" d="M286.33,20.641v33.667h-3.629V20.641H286.33z"/>
	<path id="T" fill="#FED831" d="M294.343,23.967h-5.443v-3.326h14.465v3.326h-5.443v30.341h-3.578V23.967z"/>
	<path id="Y" fill="#FED831" d="M311.326,54.308v-12.55c0-0.403-0.05-0.604-0.15-0.907l-6.199-20.21h3.931
		c1.663,6.099,3.68,13.355,4.233,16.431h0.051c0.655-3.226,2.722-10.635,4.284-16.431h3.779l-6.249,20.412
		c-0.051,0.252-0.101,0.504-0.101,1.008v12.247H311.326z"/>
	<path id="S" fill="#FED831" d="M336.893,40.771v2.809c0,4.536,1.585,6.912,4.969,6.912c3.456,0,4.753-2.448,4.753-7.776
		c0-5.617-1.225-7.777-6.265-11.737c-5.185-4.032-7.777-6.48-7.777-13.537c0-6.12,1.872-11.953,9.361-11.881
		c7.2,0,9.072,4.752,9.072,10.873v2.231h-5.112v-2.088c0-3.96-0.72-6.553-4.032-6.553s-4.176,2.881-4.176,6.625
		c0,4.464,0.936,6.192,5.328,9.505c6.696,5.04,8.784,7.921,8.784,15.841c0,6.769-1.943,12.962-10.08,12.962
		c-7.705,0-9.938-5.113-9.938-11.449v-2.736H336.893z"/>
	<path id="I" fill="#FED831" d="M359.479,20.641v33.667h-3.629V20.641H359.479z"/>
	<path id="N" fill="#FED831" d="M364.418,54.308V20.641h4.284l5.695,20.664c0.756,2.62,1.108,4.586,1.36,5.947h0.101
		c-0.201-4.536-0.252-9.273-0.252-14.717V20.641h3.377v33.667h-4.133L368.5,30.771c-0.504-1.713-0.705-3.074-0.907-3.981h-0.05
		c0.201,4.032,0.302,9.425,0.302,15.523v11.995H364.418z"/>
	<path id="C" fill="#FED831" d="M396.874,44.631v1.159c0,4.284-0.756,8.971-6.854,8.971c-5.847,0-6.854-4.132-6.854-9.071V28.554
		c0-5.394,2.318-8.367,6.904-8.367c5.645,0,6.653,4.032,6.653,8.417v1.311h-3.629v-1.563c0-2.671-0.454-4.889-3.074-4.889
		c-2.521,0-3.176,2.016-3.176,4.989v17.438c0,3.377,0.756,5.595,3.276,5.595c2.621,0,3.074-2.269,3.074-5.443v-1.411H396.874z"/>
	<path id="E" fill="#FED831" d="M411.44,38.028h-7.561v13.003h8.568l-0.454,3.276h-11.692V20.641h11.541v3.326h-7.963v10.735h7.561
		V38.028z"/>
	<path id="one" fill="#FED831" d="M428.382,54.308V13.552c-1.296,0.576-4.177,1.297-5.4,1.44v-4.104
		c2.736-0.504,5.616-2.304,6.84-3.672h3.673v47.092H428.382z"/>
	<path id="nine" fill="#FED831" d="M444.798,44.154v0.505c0,4.032,1.44,5.904,4.177,5.904c3.528,0,4.608-2.232,4.608-9.793v-8.425
		c-1.009,2.16-2.736,3.528-6.192,3.528c-6.049,0-8.137-4.465-8.137-10.945v-6.84c0-6.913,3.168-11.161,9.792-11.161
		c6.193,0,9.577,3.672,9.577,11.449v21.098c0,9.072-1.008,15.409-9.721,15.409c-7.345,0-9.217-5.041-9.217-10.441v-0.288H444.798z
		 M444.366,17.656v7.272c0,3.24,0.647,6.409,4.32,6.409c3.96,0,4.896-3.457,4.896-8.209v-5.328c0-4.32-1.297-6.553-4.608-6.553
		C445.95,11.248,444.366,13.12,444.366,17.656z"/>
	<path id="seven" fill="#FED831" d="M481.59,7.504v3.816c-5.832,11.521-10.297,25.85-12.241,42.987h-5.256
		c1.584-15.049,6.408-31.106,12.241-42.195h-14.042V7.504H481.59z"/>
	<path id="eight" fill="#FED831" d="M484.827,43.579v-5.257c0-6.049,2.521-7.921,4.681-9.217c-2.521-1.512-3.961-3.96-3.961-8.713
		v-2.809c0-6.696,3.169-10.656,9.577-10.656c5.545,0,9.073,3.24,9.073,10.656v2.521c0,5.904-1.873,7.705-4.104,8.929
		c2.808,1.296,4.68,3.744,4.68,9.217v5.041c0,7.849-3.168,11.593-10.009,11.593C488.644,54.884,484.827,51.499,484.827,43.579z
		 M499.732,43.795v-6.049c0-4.464-1.584-6.337-4.896-6.337s-4.896,1.944-4.896,6.481v5.832c0,3.889,1.368,6.696,4.896,6.696
		C498.58,50.419,499.732,47.827,499.732,43.795z M490.443,17.368v3.889c0,3.384,1.368,5.688,4.465,5.688
		c2.88,0,4.393-1.729,4.393-5.761v-3.888c0-3.241-0.864-5.905-4.393-5.905C491.596,11.392,490.443,13.912,490.443,17.368z"/>
</g>
</svg>
