<svg version="1.1" id="ferris" xmlns="http://www.w3.org/2000/svg" xmlns:xlink="http://www.w3.org/1999/xlink" x="0px" y="0px"
   width="395.384px" height="408.308px" viewBox="0 0 395.384 408.308" enable-background="new 0 0 395.384 408.308"
   xml:space="preserve">
<g id="foundation">
   <path id="balance" d="M313.151,377.446l-90.91-197.854c0.478-1.995,0.737-4.075,0.737-6.216c0-14.705-11.921-26.626-26.626-26.626
      c-14.704,0-26.626,11.921-26.626,26.626c0,3.806,0.804,7.422,2.243,10.696L83.118,377.446l33.438,0.278l78.521-177.755
      c0.423,0.02,0.848,0.032,1.275,0.032c1.594,0,3.153-0.148,4.67-0.417l78.691,178.139L313.151,377.446z"/>
   <path id="wheel" d="M344.934,178.334c0-81.064-65.95-147.015-147.015-147.015c-81.064,0-147.015,65.951-147.015,147.015
      c0,81.064,65.951,147.015,147.015,147.015c45.561,0,86.346-20.833,113.333-53.473l0.764,0.654l1.951-2.279l-0.829-0.71
      C333.034,244.459,344.934,212.762,344.934,178.334z M308.581,265.638l-106.631-91.33h136.923c0.038,1.338,0.062,2.68,0.062,4.026
      C338.934,211.273,327.579,241.608,308.581,265.638z M201.762,171.308l100.439-87.8c21.337,23.443,34.896,54.083,36.558,87.8
      H201.762z M300.156,81.311l-101.002,88.292V37.335C238.863,37.678,274.708,54.509,300.156,81.311z M196.154,37.342v132.002
      L94.658,82.412C120.051,55.095,156.118,37.836,196.154,37.342z M193.835,171.308H57.08c1.637-33.183,14.801-63.38,35.558-86.676
      L193.835,171.308z M56.966,174.308h136.806L88.1,266.682c-19.501-24.191-31.195-54.927-31.195-88.348
      C56.905,176.987,56.928,175.646,56.966,174.308z M90.007,268.999l106.147-92.79v143.117
      C153.607,318.801,115.542,299.343,90.007,268.999z M199.154,319.333v-143.47l107.544,92.111
      C281.056,299.035,242.395,318.96,199.154,319.333z"/>
</g>
<g id="cabins">
   <g id="seven">
      <path d="M92.154,182.308v-8h-64v8h2v23h-0.162c0,0,2.416,12.991,5.799,15.407c3.382,2.416,50.736,2.36,54.119-0.056
         s1.933-15.351,1.933-15.351h-0.688v-23H92.154z M31.154,205.308v-23h5v23H31.154z M37.154,205.308v-23h50v23H37.154z
          M88.154,205.308v-23h2v23H88.154z"/>
      <g>

            <rect x="34.103" y="214.141" transform="matrix(0.4229 0.9062 -0.9062 0.4229 216.5736 89.2183)" fill="#FFFFFF" width="8.276" height="1"/>
      </g>
   </g>
   <g id="six">
      <path d="M375.154,182.308v-8h-64v8h2v23h-0.162c0,0,2.416,12.991,5.799,15.407c3.382,2.416,50.736,2.36,54.119-0.056
         s1.933-15.351,1.933-15.351h-0.688v-23H375.154z M314.154,205.308v-23h5v23H314.154z M320.154,205.308v-23h50v23H320.154z
          M371.154,205.308v-23h2v23H371.154z"/>
      <g>

            <rect x="317.103" y="214.141" transform="matrix(0.4229 0.9062 -0.9062 0.4229 379.897 -167.2316)" fill="#FFFFFF" width="8.276" height="1"/>
      </g>
   </g>
   <g id="five">
      <path d="M345.154,275.308v-8h-64v8h2v23h-0.162c0,0,2.416,12.991,5.799,15.407c3.382,2.416,50.736,2.36,54.119-0.056
         s1.933-15.352,1.933-15.352h-0.688v-23H345.154z M284.154,298.308v-23h5v23H284.154z M290.154,298.308v-23h50v23H290.154z
          M341.154,298.308v-23h2v23H341.154z"/>
      <g>

            <rect x="287.103" y="307.14" transform="matrix(0.4229 0.9062 -0.9062 0.4229 446.8586 -86.3745)" fill="#FFFFFF" width="8.276" height="1"/>
      </g>
   </g>
   <g id="four">
      <path d="M233.154,332.308v-8h-64v8h2v23h-0.162c0,0,2.416,12.991,5.799,15.407c3.382,2.416,50.736,2.36,54.119-0.056
         s1.933-15.352,1.933-15.352h-0.688v-23H233.154z M172.154,355.308v-23h5v23H172.154z M178.154,355.308v-23h50v23H178.154z
          M229.154,355.308v-23h2v23H229.154z"/>
      <g>

            <rect x="175.103" y="364.14" transform="matrix(0.4229 0.9062 -0.9062 0.4229 433.8742 48.0136)" fill="#FFFFFF" width="8.276" height="1"/>
      </g>
   </g>
   <g id="three">
      <path d="M117.154,275.308v-8h-64v8h2v23h-0.162c0,0,2.416,12.991,5.799,15.407c3.382,2.416,50.736,2.36,54.119-0.056
         s1.933-15.352,1.933-15.352h-0.688v-23H117.154z M56.154,298.308v-23h5v23H56.154z M62.154,298.308v-23h50v23H62.154z
          M113.154,298.308v-23h2v23H113.154z"/>
      <g>

            <rect x="59.103" y="307.14" transform="matrix(0.4229 0.9062 -0.9062 0.4229 315.2765 120.2353)" fill="#FFFFFF" width="8.276" height="1"/>
      </g>
   </g>
   <g id="two">
      <path d="M346.154,84.308v-8h-64v8h2v23h-0.162c0,0,2.416,12.991,5.799,15.407c3.382,2.416,50.736,2.36,54.119-0.056
         s1.933-15.351,1.933-15.351h-0.688v-23H346.154z M285.154,107.308v-23h5v23H285.154z M291.154,107.308v-23h50v23H291.154z
          M344.154,107.308h-2v-23h2V107.308z"/>
      <g>

            <rect x="288.103" y="116.141" transform="matrix(0.4229 0.9062 -0.9062 0.4229 274.3547 -197.5095)" fill="#FFFFFF" width="8.276" height="1"/>
      </g>
   </g>
   <g id="one">
      <path d="M122.154,84.308v-8h-64v8h2v23h-0.162c0,0,2.416,12.991,5.799,15.407c3.382,2.416,50.736,2.36,54.119-0.056
         s1.933-15.351,1.933-15.351h-0.688v-23H122.154z M61.154,107.308v-23h5v23H61.154z M67.154,107.308v-23h50v23H67.154z
          M118.154,107.308v-23h2v23H118.154z"/>
      <g>

            <rect x="64.103" y="116.141" transform="matrix(0.4229 0.9062 -0.9062 0.4229 145.0811 5.4755)" fill="#FFFFFF" width="8.276" height="1"/>
      </g>
   </g>
   <g id="tilted">
      <path d="M232.698,28.237l-0.512,0.681l-18.383-13.825l0.601-0.799l-6.393-4.808l-38.467,51.15l6.395,4.808l1.202-1.598
         l18.383,13.825l0,0c0.02,0.01,11.82,5.864,15.782,4.614c3.963-1.252,32.363-39.145,32.465-43.3
         C243.874,34.827,232.698,28.237,232.698,28.237z M196.124,76.872l-18.382-13.824l3.005-3.997l18.382,13.823l0.601-0.799
         l-18.382-13.823l30.05-39.961l18.383,13.824l0.602-0.799L212,17.491l1.202-1.599l18.383,13.825l0.486-0.646L196.124,76.872z"/>
      <g>

            <rect x="203.736" y="76.137" transform="matrix(0.9784 0.2067 -0.2067 0.9784 20.3329 -41.3172)" fill="#FFFFFF" width="8.276" height="1"/>
      </g>
   </g>
</g>
</svg>
