<svg version="1.1" id="Layer_1" xmlns="http://www.w3.org/2000/svg" xmlns:xlink="http://www.w3.org/1999/xlink" x="0px" y="0px"
	 width="305.67px" height="134.668px" viewBox="0 0 305.67 134.668" enable-background="new 0 0 305.67 134.668"
	 xml:space="preserve">
<g>
	<path fill="#F47C20" d="M299.072,52.712h0.063v-5.563h0.241v-1.936h-7.552c-0.113-4.354-0.99-8.442-2.498-12.227
		c1.195-0.074,2.06-0.158,2.264-0.304c0.818-0.584,0.467-3.676,0.467-3.676h0.063v-5.563h0.242v-1.936h-10.488
		c-6.473-6.773-15.555-10.956-25.598-10.956c-0.095,0-0.189-0.024-0.285-0.023l-4.734-4.459l-1.324,1.404l0.315,0.328l-3.845,4.054
		v-0.001c0,0,0.031,0.063,0.022,0.076c-6.084,1.75-11.467,4.981-15.746,9.577h-7.982v1.936h0.483v5.455c0,0,0.186,1.765,0.682,2.895
		c-1.814,4.109-3.008,8.582-3.134,13.42h-5.288v1.936h0.484v5.455c0,0,0.45,3.138,1.269,3.722c0.353,0.253,2.626,0.447,5.233,0.478
		c1.252,3.96,3.113,7.52,5.58,10.906h-6.52v1.936h0.484V75.1c0,0,0.451,3.138,1.269,3.722c0.818,0.585,12.206,0.566,13.024-0.019
		c0.582-0.416,0.539-2.117,0.484-3.063c0.332,0.22,0.65,0.437,0.99,0.645l-8.982,19.531l8.084,0.067l7.288-16.447
		c2.571,0.938,5.279,1.477,8.087,1.961h-2.668v1.935h0.482v5.456c0,0,0.451,3.137,1.27,3.722c0.818,0.584,12.205,0.62,13.023,0.035
		c0.818-0.584,0.401-3.649,0.401-3.649h0.062v-5.563h0.242v-1.935h-4.689c2.992-0.484,5.871-1.111,8.592-2.151l7.373,16.664
		l8.089-0.081l-8.972-19.822c0.533-0.338,1.219-0.699,1.702-1.064V75.1c0,0,0.45,3.138,1.269,3.722
		c0.818,0.585,12.206,0.62,13.023,0.035c0.818-0.584,0.401-3.648,0.401-3.648h0.062v-5.563h0.242v-1.936h-7.572
		c2.469-3.387,4.396-6.952,5.648-10.916c3.563,0.066,7.916-0.053,8.409-0.405C299.423,55.804,299.072,52.712,299.072,52.712z
		 M291.394,23.444h0.483v5.563h-0.483V23.444z M291.152,23.444v5.563h-3.738c-1.094-2.178-2.369-3.871-3.806-5.563H291.152z
		 M285.753,29.007h-6.696v-1.631l3.512-3.137C283.801,25.71,284.778,27.314,285.753,29.007z M279.625,31.992l-0.22,0.103
		l-0.847-1.813l0.219-0.103L279.625,31.992z M281.688,23.444c0.089,0,0.313,0.144,0.401,0.244l-3.033,2.719v-2.963H281.688z
		 M257.045,13.894l3.559,3.341l-3.559,3.791V13.894z M257.045,21.379l3.602-3.979l0.285,0.331l-3.707,4.057l-0.18-0.263V21.379z
		 M257.045,22.836c0.242-0.413,0.473-0.741,0.473-0.741l-0.217-0.142l3.774-4.057l0.159,0.166l1.316-1.41l-4.984-4.621
		c8.611,0.321,16.412,3.913,22.248,9.477h-2.935v1.936h0.483v4.445l-16.273,14.25c-1.037-1.101-2.594-1.838-4.045-1.994V22.836z
		 M277.605,27.677v-4.233h1.209v3.175L277.605,27.677z M278.814,27.588v1.419h-1.209v-0.36L278.814,27.588z M256.319,13.212v7.632
		l-8.45-7.809c2.256-0.584,4.668-0.941,7.078-1.048L256.319,13.212z M253.293,10.624c-1.301,0.108-2.582,0.288-3.84,0.534l2.065-2.2
		L253.293,10.624z M250.46,7.963l0.882,0.828l-2.296,2.446c-0.724,0.15-1.438,0.323-2.146,0.517L250.46,7.963z M246.597,13.863
		l0.229,0.075l-0.625,1.902l-0.229-0.075L246.597,13.863z M245.447,13.769c-0.324,0.688-0.578,1.373-0.496,1.786
		c0.197,0.985,8.693,8.799,9.691,8.933c0.424,0.058,1.193-0.382,1.677-0.888v16.515c-1.693,0.022-3.313,0.679-4.444,1.737
		l-13.864-11.785c-0.016-0.626-0.138-1.06-0.138-1.06h0.063v-5.563h0.242v-1.936h-5.441C236.321,17.88,240.648,15.38,245.447,13.769
		z M237.693,23.444v5.563h-0.483v-5.563H237.693z M230.863,23.444h6.104v5.563h-0.321l-6.088-5.224
		C230.658,23.668,230.762,23.444,230.863,23.444z M235.541,29.007h-8.721c0.963-1.693,2.061-3.212,3.278-4.671L235.541,29.007z
		 M224.873,23.444h4.072c-1.437,1.692-2.713,3.386-3.807,5.563h-0.266V23.444z M225.441,31.992l-0.22,0.103l-0.024-0.052
		c0.044-0.097,0.088-0.192,0.133-0.289L225.441,31.992z M224.424,30.257c-0.01,0.021-0.02,0.042-0.03,0.063l-0.019-0.039
		L224.424,30.257z M223.422,29.007v-5.563h1.209v5.563H223.422z M224.875,32.834c2.482,0.415,11.797,0.319,12.531-0.205
		c0.342-0.245,0.48-0.947,0.523-1.666l13.314,11.476c-0.861,1.011-1.423,2.291-1.526,3.742H230.92v-0.968h-8.719
		C222.321,40.86,223.263,36.641,224.875,32.834z M230.438,47.149v5.563h-0.484v-5.563H230.438z M217.375,52.712h-1.21v-5.563h1.21
		V52.712z M217.965,55.8l-0.847-1.814l0.22-0.103l0.846,1.814L217.965,55.8z M217.617,52.712v-5.563h3.113
		c0.052,1.693,0.254,3.628,0.592,5.563H217.617z M222.184,47.149h7.527v5.563h-6.912C222.446,50.777,222.236,48.842,222.184,47.149z
		 M223.887,56.808c2.971-0.013,5.865-0.137,6.263-0.42c0.818-0.584,0.468-3.676,0.468-3.676h0.062v-5.563h0.241v-0.242h18.785
		c0.031,0.726,0.219,1.567,0.535,2.288l-1.727,3.784l-16.913,14.73h-1.748C227.248,64.323,225.207,60.8,223.887,56.808z
		 M236.484,73.627c-0.242-0.119-0.242-0.24-0.484-0.362v-3.62h0.484V73.627z M235.758,73.084c-1.451-1.08-2.98-2.23-4.197-3.439
		h4.197V73.084z M223.422,75.208h-1.209v-5.563h1.209V75.208z M224.012,78.296l-0.846-1.814l0.219-0.103l0.847,1.814L224.012,78.296
		z M223.664,75.208v-5.563h5.929c1.759,1.935,3.989,3.688,6.165,5.249v0.314H223.664z M235.732,75.1v-0.03
		c0.014,0.011,0.029,0.021,0.043,0.03H235.732z M238.467,75.056c-0.64-0.396-1.257-0.816-1.74-1.254v-4.157h0.241v-1.936h-4.261
		l15.135-13.146L238.467,75.056z M244.848,78.151l11.184-25.165c0.073,0.004,0.288,0.005,0.288,0.006v27.175
		C252.207,80.141,248.394,79.432,244.848,78.151z M251.481,88.996h-1.21v-5.563h1.21V88.996z M252.072,92.083l-0.848-1.813
		l0.22-0.103l0.847,1.813L252.072,92.083z M264.06,83.432h0.483v5.563h-0.483V83.432z M263.818,83.432v5.563h-12.096v-5.563H263.818
		z M257.045,80.164V52.958c0.242-0.017,0.195-0.037,0.357-0.065l11.141,25.07C264.938,79.332,261.157,80.104,257.045,80.164z
		 M277.122,73.242c-0.726,0.535-1.565,1.048-2.313,1.528l-9.4-20.26l15.246,13.199h-4.016v1.936h0.483V73.242z M280.995,69.645
		c-0.776,0.726-1.454,1.488-2.181,2.227v-2.227H280.995z M278.573,75.208h-1.21V74.87c0.484-0.297,0.727-0.603,1.21-0.917V75.208z
		 M278.573,72.077c-0.483,0.335-0.726,0.66-1.21,0.978v-3.409h1.21V72.077z M279.164,78.296l-0.848-1.814l0.22-0.103l0.847,1.814
		L279.164,78.296z M291.152,69.645h0.482v5.563h-0.482V69.645z M290.91,69.645v5.563h-12.096V73.76
		c1.452-1.28,2.799-2.664,4.146-4.115H290.91z M282.699,67.709h-0.932l-17.15-14.774l-2.217-4.797
		c0.098-0.405,0.154-0.989,0.172-1.231h21.322v0.242h0.484v5.455c0,0,0.45,3.138,1.269,3.722c0.253,0.181,1.451,0.357,3.104,0.424
		C287.431,60.764,285.316,64.323,282.699,67.709z M284.621,52.712v-5.563h1.209v5.563H284.621z M285.574,53.986l0.219-0.103
		l0.847,1.814l-0.22,0.103L285.574,53.986z M289.754,52.712h-3.682v-5.563h4.297C290.314,48.842,290.106,50.777,289.754,52.712z
		 M283.895,45.213v0.968h-21.334c-0.094-1.451-0.422-2.476-1.139-3.432l15.941-13.891v0.04c0,0,0.451,3.138,1.27,3.722
		c0.535,0.382,5.548,0.561,9.23,0.438c1.561,3.745,2.404,7.802,2.523,12.155H283.895z M298.166,52.712h-6.936
		c0.338-1.936,0.539-3.87,0.592-5.563h6.344V52.712z M298.893,52.712h-0.484v-5.563h0.484V52.712z"/>
	<g>
		<path fill="#F47C20" d="M11.31,105.468c0-1.4-0.176-2.388-0.528-2.964c-0.375-0.576-0.994-0.853-1.856-0.829
			c-0.647-0.023-1.062-0.068-1.243-0.137c-0.194-0.023-0.279-0.108-0.255-0.257c0-0.16,0.068-0.274,0.204-0.343
			c0.146-0.022,0.39-0.034,0.729-0.034c1.391,0.023,2.969,0.059,4.733,0.105c1.55-0.023,3.032-0.059,4.445-0.105
			c2.647,0,4.733,0.434,6.261,1.301c1.504,0.879,2.268,2.291,2.291,4.236c-0.023,3.094-1.946,4.98-5.768,5.66v0.07
			c2.366,0.141,4.332,0.727,5.897,1.758c1.543,1.055,2.326,2.736,2.349,5.045c-0.046,2.355-1.034,3.996-2.964,4.922
			c-1.931,0.914-4.293,1.359-7.087,1.336c-1.738-0.046-3.538-0.08-5.4-0.103c-1.772,0.023-3.356,0.057-4.753,0.103
			c-0.648,0-0.96-0.126-0.937-0.377c-0.024-0.148,0.062-0.257,0.255-0.326c0.182-0.045,0.596-0.069,1.243-0.069
			c0.863-0.023,1.481-0.323,1.856-0.899c0.352-0.576,0.528-1.54,0.528-2.892V105.468z M14.928,121.25
			c-0.024,2.117,1.174,3.187,3.595,3.209c3.816,0.047,5.725-1.917,5.725-5.89c0-2.257-0.636-3.821-1.908-4.691
			c-1.283-0.799-3.203-1.181-5.759-1.146c-0.704,0-1.147,0.035-1.329,0.105c-0.24,0.071-0.348,0.212-0.324,0.423V121.25z
			 M14.928,111.326c0,0.459,0.292,0.67,0.876,0.635c4.304,0.105,6.479-1.6,6.524-5.117c-0.023-1.929-0.518-3.293-1.483-4.093
			c-0.967-0.741-2.237-1.1-3.81-1.076c-1.405,0-2.107,0.253-2.107,0.758V111.326z"/>
		<path fill="#F47C20" d="M36.682,125.336c-0.534-0.023-0.988-0.239-1.363-0.647c-0.42-0.373-0.63-0.834-0.63-1.382
			c0-0.583,0.21-1.073,0.63-1.47c0.375-0.385,0.829-0.578,1.363-0.578c0.557,0,1.034,0.193,1.431,0.578
			c0.363,0.396,0.545,0.887,0.545,1.47c0,0.548-0.182,1.009-0.545,1.382C37.715,125.098,37.238,125.313,36.682,125.336z"/>
		<path fill="#F47C20" d="M53.36,118.437c0-0.411,0.165-0.616,0.494-0.616c0.317,0,0.488,0.229,0.51,0.687
			c0.08,0.387,0.255,0.916,0.528,1.584c0.238,0.705,0.612,1.426,1.123,2.166c0.511,0.705,1.186,1.309,2.025,1.814
			c0.783,0.552,1.77,0.827,2.961,0.827c1.804-0.023,3.148-0.527,4.034-1.513c0.862-0.938,1.293-2.046,1.293-3.325
			c0-0.892-0.165-1.66-0.493-2.305c-0.341-0.645-0.817-1.173-1.43-1.583c-0.556-0.457-1.203-0.868-1.94-1.231
			c-0.749-0.329-1.509-0.651-2.28-0.968c-0.76-0.364-1.503-0.733-2.229-1.108c-0.715-0.387-1.373-0.844-1.974-1.372
			c-0.556-0.551-1.021-1.202-1.396-1.953c-0.375-0.762-0.562-1.659-0.562-2.691c0.045-2.287,0.833-3.947,2.364-4.979
			c1.463-1.008,3.045-1.513,4.746-1.513c0.907,0,1.65,0.069,2.228,0.208c0.556,0.151,1.009,0.342,1.361,0.574
			c0.363,0.197,0.674,0.376,0.936,0.539c0.261,0.186,0.539,0.278,0.833,0.278c0.136,0,0.255-0.081,0.357-0.243
			c0.068-0.116,0.125-0.26,0.17-0.434c0.045-0.393,0.159-0.607,0.34-0.642c0.284,0,0.425,0.205,0.425,0.614
			c0.022,1.754,0.057,3.48,0.102,5.176c0,0.48-0.125,0.721-0.375,0.721c-0.102,0-0.21-0.129-0.323-0.387
			c-0.136-0.246-0.261-0.551-0.375-0.915c-0.442-1.514-1.175-2.664-2.197-3.451c-1.056-0.775-2.186-1.162-3.389-1.162
			c-1.26,0.023-2.282,0.387-3.065,1.09c-0.863,0.739-1.294,1.671-1.294,2.797c0.022,1.548,0.697,2.715,2.025,3.5
			c0.601,0.411,1.288,0.798,2.059,1.161c0.737,0.352,1.515,0.71,2.332,1.073c1.667,0.668,3.142,1.56,4.424,2.674
			c0.601,0.575,1.078,1.267,1.429,2.076c0.352,0.821,0.528,1.806,0.528,2.955c-0.057,2.381-0.907,4.17-2.55,5.366
			c-1.621,1.231-3.661,1.847-6.121,1.847c-0.929-0.023-1.734-0.146-2.414-0.366c-0.669-0.209-1.247-0.447-1.734-0.715
			c-0.487-0.279-0.884-0.529-1.19-0.75c-0.294-0.186-0.572-0.279-0.833-0.279c-0.113,0-0.204,0.059-0.272,0.176
			c-0.068,0.129-0.142,0.264-0.221,0.405c-0.045,0.141-0.102,0.271-0.17,0.388c-0.09,0.153-0.204,0.229-0.34,0.229
			c-0.148,0-0.256-0.088-0.324-0.264c-0.091-0.117-0.136-0.258-0.136-0.422V118.437z"/>
		<path fill="#F47C20" d="M87.18,116.794h-8.96v5.219c0,0.944,0.131,1.617,0.393,2.019c0.246,0.402,0.632,0.611,1.156,0.628
			c0.373,0,0.615,0.016,0.727,0.048c0.08,0.048,0.119,0.124,0.119,0.228c0,0.176-0.155,0.264-0.465,0.264
			c-0.906-0.032-1.972-0.056-3.197-0.072c-1.208,0.016-2.274,0.04-3.196,0.072c-0.311,0-0.465-0.088-0.465-0.264
			c-0.017-0.104,0.031-0.18,0.143-0.228c0.095-0.032,0.33-0.048,0.704-0.048c0.54-0.017,0.941-0.226,1.204-0.629
			c0.23-0.402,0.346-1.076,0.346-2.021V111.36c0-0.978-0.115-1.668-0.346-2.071c-0.263-0.402-0.664-0.596-1.204-0.579
			c-0.374-0.016-0.608-0.048-0.704-0.096c-0.112-0.016-0.16-0.076-0.143-0.18c0-0.176,0.155-0.264,0.465-0.264
			c0.922,0.017,1.988,0.042,3.196,0.074c1.225-0.017,2.291-0.041,3.197-0.074c0.31,0,0.465,0.088,0.465,0.264
			c0,0.104-0.04,0.165-0.119,0.18c-0.111,0.048-0.354,0.08-0.727,0.096c-0.524-0.017-0.91,0.177-1.156,0.58
			c-0.262,0.403-0.393,1.093-0.393,2.071v4.624h8.96v-4.624c0-0.979-0.115-1.668-0.346-2.071c-0.254-0.403-0.651-0.596-1.191-0.58
			c-0.374-0.016-0.608-0.048-0.703-0.096c-0.12-0.016-0.171-0.076-0.155-0.18c0-0.176,0.155-0.264,0.465-0.264
			c0.929,0.017,1.998,0.042,3.206,0.074c1.216-0.017,2.281-0.041,3.194-0.074c0.31,0,0.465,0.088,0.465,0.264
			c0,0.104-0.044,0.165-0.132,0.18c-0.112,0.048-0.354,0.08-0.729,0.096c-0.518-0.017-0.901,0.177-1.148,0.579
			c-0.263,0.403-0.395,1.093-0.395,2.071v10.649c0,0.945,0.131,1.619,0.395,2.021c0.247,0.403,0.63,0.612,1.148,0.629
			c0.375,0,0.617,0.016,0.729,0.048c0.088,0.048,0.132,0.124,0.132,0.228c0,0.176-0.155,0.264-0.465,0.264
			c-0.914-0.032-1.979-0.056-3.194-0.072c-1.208,0.016-2.277,0.04-3.206,0.072c-0.31,0-0.465-0.088-0.465-0.264
			c-0.017-0.104,0.035-0.18,0.155-0.228c0.095-0.032,0.33-0.048,0.703-0.048c0.54-0.017,0.937-0.226,1.191-0.628
			c0.23-0.402,0.346-1.075,0.346-2.019V116.794z"/>
		<path fill="#F47C20" d="M103.461,107.788h0.882l5.386,14.371c0.294,0.764,0.604,1.363,0.93,1.798
			c0.31,0.436,0.719,0.669,1.227,0.702c0.566,0.032,0.824,0.108,0.775,0.228c0,0.144-0.024,0.224-0.072,0.24
			c-0.063,0.048-0.218,0.072-0.464,0.072c-0.993-0.032-1.986-0.056-2.979-0.072c-0.994,0.016-1.986,0.04-2.979,0.072
			c-0.437,0.017-0.647-0.087-0.631-0.312c-0.032-0.136,0.246-0.212,0.834-0.228c0.763-0.033,1.136-0.37,1.12-1.012
			c-0.016-0.288-0.087-0.691-0.214-1.209c-0.151-0.526-0.334-1.048-0.548-1.566l-0.703-1.925h-6.196l-1.37,3.849
			c-0.08,0.214-0.12,0.464-0.12,0.752c0,0.387,0.147,0.658,0.441,0.814c0.262,0.165,0.58,0.263,0.954,0.296
			c0.453,0.048,0.663,0.124,0.631,0.228c0,0.144-0.023,0.224-0.071,0.24c-0.063,0.048-0.203,0.072-0.417,0.072
			c-0.763-0.032-1.526-0.056-2.288-0.072c-0.771,0.016-1.538,0.04-2.3,0.072c-0.311,0-0.458-0.104-0.441-0.312
			c-0.033-0.104,0.138-0.18,0.512-0.228c0.278-0.033,0.54-0.107,0.787-0.222c0.238-0.107,0.473-0.284,0.703-0.53
			c0.437-0.46,0.941-1.423,1.513-2.887L103.461,107.788z M103.02,110.883c-0.016,0-0.032,0-0.047,0l-2.884,7.378h5.672
			L103.02,110.883z"/>
		<path fill="#F47C20" d="M117.523,111.364c0-0.979-0.112-1.671-0.335-2.074c-0.263-0.403-0.666-0.597-1.207-0.58
			c-0.375-0.016-0.61-0.048-0.706-0.096c-0.12-0.016-0.172-0.076-0.155-0.18c0-0.176,0.155-0.264,0.465-0.264
			c0.93,0.017,1.998,0.042,3.206,0.074c1.43-0.017,2.853-0.041,4.267-0.074c1.645,0,2.94,0.37,3.886,1.108
			c0.937,0.723,1.414,1.806,1.43,3.251c-0.096,1.494-0.557,2.537-1.383,3.128c-0.39,0.32-0.862,0.579-1.418,0.775
			c-0.541,0.206-1.145,0.382-1.812,0.53c1.778,2.102,3.56,4.195,5.346,6.28c0.262,0.271,0.572,0.542,0.929,0.813
			c0.326,0.287,0.615,0.48,0.87,0.579c0.413,0.064,0.619,0.188,0.619,0.372c0,0.129-0.139,0.193-0.417,0.193
			c-0.199,0-0.492-0.017-0.881-0.049c-0.373-0.016-0.738-0.024-1.096-0.024h-1.81c-1.524-2.002-3.061-3.991-4.609-5.969
			c-0.421-0.624-0.778-1.087-1.072-1.391c-0.294-0.271-0.667-0.406-1.119-0.406c-0.326,0.017-0.481,0.161-0.465,0.432v4.217
			c0,0.945,0.131,1.619,0.394,2.022c0.246,0.403,0.627,0.612,1.144,0.629c0.373,0,0.619,0.016,0.738,0.048
			c0.08,0.048,0.119,0.124,0.119,0.228c0,0.176-0.155,0.264-0.465,0.264c-0.914-0.032-1.979-0.056-3.194-0.072
			c-1.208,0.016-2.277,0.04-3.206,0.072c-0.31,0-0.465-0.088-0.465-0.264c-0.017-0.104,0.035-0.18,0.155-0.228
			c0.096-0.032,0.331-0.048,0.706-0.048c0.542-0.017,0.944-0.226,1.207-0.629c0.223-0.403,0.335-1.077,0.335-2.022V111.364z
			 M121.545,108.71c-0.993,0-1.489,0.177-1.489,0.531v7.506h1.12c1.533,0.017,2.665-0.271,3.395-0.864
			c0.683-0.601,1.024-1.695,1.024-3.284c-0.016-1.465-0.389-2.494-1.12-3.087C123.729,108.978,122.752,108.71,121.545,108.71z"/>
		<path fill="#F47C20" d="M136.202,111.36c0-0.978-0.115-1.668-0.346-2.071c-0.254-0.402-0.651-0.596-1.191-0.579
			c-0.373-0.016-0.607-0.048-0.703-0.096c-0.12-0.016-0.171-0.076-0.155-0.18c0-0.176,0.154-0.264,0.464-0.264
			c0.928,0.017,1.995,0.042,3.201,0.074c1.214-0.017,2.277-0.041,3.189-0.074c0.31,0,0.464,0.088,0.464,0.264
			c0,0.104-0.04,0.165-0.119,0.18c-0.119,0.048-0.365,0.08-0.738,0.096c-0.516-0.017-0.896,0.177-1.143,0.579
			c-0.262,0.403-0.393,1.093-0.393,2.071v10.649c0,0.945,0.131,1.619,0.393,2.021c0.246,0.403,0.627,0.612,1.143,0.629
			c0.373,0,0.619,0.016,0.738,0.048c0.079,0.048,0.119,0.124,0.119,0.228c0,0.176-0.154,0.264-0.464,0.264
			c-0.912-0.032-1.975-0.056-3.189-0.072c-1.206,0.016-2.273,0.04-3.201,0.072c-0.31,0-0.464-0.088-0.464-0.264
			c-0.017-0.104,0.035-0.18,0.155-0.228c0.095-0.032,0.33-0.048,0.703-0.048c0.54-0.017,0.937-0.226,1.191-0.628
			c0.23-0.403,0.346-1.077,0.346-2.021V111.36z"/>
		<path fill="#F47C20" d="M144.313,120.443c0-0.288,0.115-0.431,0.346-0.431c0.222,0,0.342,0.16,0.357,0.48
			c0.056,0.271,0.179,0.641,0.37,1.109c0.167,0.493,0.429,0.998,0.786,1.516c0.357,0.493,0.83,0.917,1.417,1.27
			c0.548,0.386,1.239,0.58,2.073,0.58c1.263-0.017,2.204-0.37,2.823-1.059c0.604-0.657,0.905-1.433,0.905-2.328
			c0-0.624-0.115-1.162-0.345-1.613c-0.238-0.452-0.572-0.821-1.001-1.108c-0.389-0.32-0.842-0.607-1.358-0.862
			c-0.524-0.23-1.056-0.456-1.596-0.678c-0.532-0.254-1.053-0.513-1.561-0.775c-0.5-0.271-0.961-0.591-1.382-0.961
			c-0.389-0.386-0.715-0.841-0.977-1.367c-0.262-0.534-0.394-1.162-0.394-1.884c0.032-1.601,0.583-2.762,1.655-3.485
			c1.024-0.706,2.131-1.059,3.322-1.059c0.635,0,1.155,0.049,1.56,0.146c0.389,0.105,0.706,0.239,0.952,0.402
			c0.254,0.138,0.473,0.263,0.655,0.377c0.183,0.13,0.377,0.195,0.583,0.195c0.095,0,0.178-0.057,0.25-0.17
			c0.047-0.081,0.087-0.182,0.119-0.304c0.031-0.275,0.111-0.425,0.238-0.449c0.198,0,0.298,0.144,0.298,0.43
			c0.016,1.228,0.04,2.436,0.071,3.623c0,0.336-0.087,0.504-0.262,0.504c-0.071,0-0.147-0.09-0.227-0.271
			c-0.095-0.172-0.183-0.385-0.262-0.64c-0.31-1.06-0.823-1.865-1.538-2.416c-0.739-0.542-1.53-0.813-2.373-0.813
			c-0.882,0.017-1.598,0.271-2.146,0.763c-0.604,0.518-0.906,1.17-0.906,1.958c0.016,1.084,0.488,1.901,1.417,2.451
			c0.421,0.288,0.901,0.559,1.441,0.813c0.516,0.247,1.06,0.497,1.632,0.751c1.167,0.468,2.2,1.092,3.097,1.872
			c0.421,0.403,0.754,0.887,1,1.453c0.246,0.575,0.37,1.265,0.37,2.069c-0.04,1.667-0.635,2.919-1.785,3.756
			c-1.135,0.862-2.563,1.293-4.285,1.293c-0.651-0.016-1.214-0.102-1.69-0.256c-0.468-0.147-0.873-0.313-1.214-0.5
			c-0.341-0.195-0.619-0.37-0.833-0.525c-0.207-0.13-0.401-0.195-0.583-0.195c-0.079,0-0.143,0.041-0.19,0.123
			c-0.048,0.09-0.1,0.185-0.155,0.284c-0.032,0.099-0.072,0.189-0.119,0.271c-0.063,0.107-0.143,0.16-0.238,0.16
			c-0.103,0-0.179-0.062-0.227-0.185c-0.063-0.083-0.095-0.181-0.095-0.296V120.443z"/>
		<path fill="#F47C20" d="M160.922,111.365c0-0.98-0.112-1.671-0.335-2.075c-0.263-0.404-0.666-0.597-1.207-0.581
			c-0.375-0.016-0.61-0.048-0.706-0.096c-0.12-0.016-0.172-0.076-0.155-0.18c0-0.176,0.155-0.264,0.465-0.264
			c1.939,0.017,3.878,0.042,5.817,0.074c1.955-0.017,3.866-0.041,5.734-0.074c0.247-0.016,0.377,0.083,0.394,0.295v2.853
			c0,0.336-0.092,0.496-0.274,0.479c-0.175,0-0.286-0.12-0.333-0.358c-0.072-1.045-0.381-1.753-0.93-2.124
			c-0.557-0.371-1.534-0.547-2.933-0.531c-0.667,0-1.204,0-1.609,0s-0.708,0.017-0.906,0.049c-0.19,0.017-0.322,0.049-0.393,0.099
			c-0.064,0.09-0.096,0.185-0.096,0.284v6.854c0.914,0.017,1.768-0.152,2.563-0.506c0.405-0.206,0.731-0.478,0.978-0.815
			c0.246-0.321,0.385-0.733,0.417-1.235c0.032-0.354,0.071-0.588,0.119-0.704c0.048-0.091,0.131-0.136,0.25-0.136
			c0.207,0,0.31,0.103,0.31,0.308c-0.016,1.042-0.04,2.093-0.072,3.151c0.016,1.042,0.04,2.093,0.072,3.151
			c0,0.197-0.088,0.295-0.263,0.295c-0.087,0.025-0.155-0.024-0.203-0.147c-0.063-0.115-0.135-0.35-0.214-0.703
			c-0.167-0.806-0.524-1.352-1.073-1.64c-0.556-0.271-1.24-0.407-2.05-0.407h-0.834v4.648c0,0.55,0.04,1.031,0.12,1.442
			c0.103,0.403,0.266,0.736,0.488,0.999c0.445,0.542,1.471,0.814,3.076,0.814c0.413,0,0.791-0.025,1.132-0.074
			c0.342-0.033,0.64-0.082,0.894-0.148c0.541-0.14,0.981-0.329,1.323-0.567c0.652-0.485,1.033-1.138,1.145-1.96
			c0.08-0.477,0.218-0.707,0.417-0.69c0.127,0,0.199,0.103,0.215,0.307c0,0.287-0.016,0.679-0.048,1.179
			c-0.063,0.541-0.095,1.003-0.095,1.388v0.86c0,0.213-0.131,0.319-0.394,0.319c-2.114-0.032-4.236-0.056-6.366-0.072
			c-2.114,0.016-4.24,0.04-6.378,0.072c-0.31,0-0.465-0.088-0.465-0.265c-0.017-0.104,0.035-0.18,0.155-0.228
			c0.096-0.032,0.331-0.048,0.706-0.048c0.542-0.017,0.944-0.226,1.207-0.629c0.223-0.402,0.335-1.076,0.335-2.021V111.365z"/>
		<path fill="#F47C20" d="M189.286,105.46c0-1.397-0.159-2.383-0.478-2.958c-0.375-0.575-0.951-0.851-1.725-0.827
			c-0.536-0.023-0.872-0.068-1.008-0.137c-0.171-0.023-0.246-0.108-0.222-0.257c0-0.251,0.222-0.377,0.665-0.377
			c0.864,0.023,1.728,0.059,2.591,0.105c0.863-0.023,1.721-0.059,2.574-0.105h0.596c0.33,0,0.54,0.117,0.631,0.352l7.687,18.45
			l7.601-18.271c0.114-0.354,0.313-0.532,0.597-0.532c0.953,0.023,1.907,0.059,2.861,0.105c0.954-0.023,1.908-0.059,2.862-0.105
			c0.443,0,0.665,0.126,0.665,0.377c0,0.149-0.063,0.234-0.188,0.257c-0.16,0.069-0.507,0.115-1.042,0.138
			c-0.751-0.023-1.298,0.252-1.64,0.827c-0.376,0.575-0.563,1.562-0.563,2.958v15.213c0,1.35,0.188,2.313,0.563,2.888
			c0.342,0.575,0.889,0.875,1.64,0.898c0.535,0,0.883,0.023,1.042,0.069c0.125,0.069,0.188,0.177,0.188,0.326
			c0,0.251-0.222,0.377-0.665,0.377c-1.306-0.046-2.828-0.08-4.566-0.103c-1.726,0.023-3.254,0.057-4.583,0.103
			c-0.443,0-0.665-0.126-0.665-0.377c-0.023-0.148,0.05-0.257,0.222-0.326c0.136-0.045,0.471-0.069,1.005-0.069
			c0.772-0.023,1.341-0.323,1.704-0.897c0.331-0.575,0.497-1.538,0.497-2.888v-16.242h-0.07l-8.453,20.221
			c-0.091,0.315-0.216,0.473-0.375,0.473c-0.193,0-0.347-0.146-0.46-0.44l-8.368-20.634h-0.068v16.622
			c0,1.35,0.182,2.313,0.545,2.888c0.352,0.575,0.903,0.875,1.653,0.898c0.534,0,0.88,0.023,1.04,0.069
			c0.114,0.069,0.17,0.177,0.17,0.326c0,0.251-0.222,0.377-0.665,0.377c-1.091-0.046-2.182-0.08-3.272-0.103
			c-1.091,0.023-2.188,0.057-3.29,0.103c-0.443,0-0.665-0.126-0.665-0.377c-0.023-0.148,0.051-0.257,0.222-0.326
			c0.136-0.045,0.472-0.069,1.008-0.069c0.774-0.023,1.349-0.323,1.725-0.897c0.319-0.575,0.478-1.538,0.478-2.888V105.46z"/>
		<path fill="#F47C20" d="M219.114,116.685c0.016-2.658,0.87-4.799,2.562-6.423c1.661-1.632,3.833-2.457,6.518-2.473
			c2.701,0.017,4.881,0.841,6.542,2.473c1.676,1.625,2.522,3.766,2.538,6.423c-0.016,2.633-0.862,4.758-2.538,6.374
			c-1.66,1.649-3.841,2.49-6.542,2.522c-2.685-0.033-4.857-0.874-6.518-2.522C219.984,121.442,219.13,119.318,219.114,116.685z
			 M222.139,116.685c0,2.12,0.497,4.014,1.49,5.682c0.977,1.733,2.499,2.625,4.565,2.674c2.066-0.049,3.596-0.941,4.589-2.674
			c0.978-1.668,1.466-3.562,1.466-5.682c0-2.136-0.489-4.046-1.466-5.731c-0.993-1.701-2.523-2.576-4.589-2.625
			c-2.066,0.049-3.588,0.924-4.565,2.625C222.635,112.638,222.139,114.548,222.139,116.685z"/>
		<path fill="#F47C20" d="M240.106,116.685c0.016-2.658,0.87-4.799,2.562-6.423c1.661-1.632,3.833-2.457,6.518-2.473
			c2.701,0.017,4.881,0.841,6.542,2.473c1.676,1.625,2.522,3.766,2.538,6.423c-0.016,2.633-0.862,4.758-2.538,6.374
			c-1.66,1.649-3.841,2.49-6.542,2.522c-2.685-0.033-4.857-0.874-6.518-2.522C240.976,121.442,240.122,119.318,240.106,116.685z
			 M243.13,116.685c0,2.12,0.497,4.014,1.49,5.682c0.977,1.733,2.499,2.625,4.565,2.674c2.066-0.049,3.596-0.941,4.589-2.674
			c0.978-1.668,1.466-3.562,1.466-5.682c0-2.136-0.489-4.046-1.466-5.731c-0.993-1.701-2.523-2.576-4.589-2.625
			c-2.066,0.049-3.588,0.924-4.565,2.625C243.627,112.638,243.13,114.548,243.13,116.685z"/>
		<path fill="#F47C20" d="M263.694,111.364c0-0.979-0.112-1.671-0.335-2.074c-0.263-0.403-0.666-0.597-1.207-0.58
			c-0.375-0.016-0.61-0.048-0.706-0.096c-0.12-0.016-0.172-0.076-0.155-0.18c0-0.176,0.155-0.264,0.465-0.264
			c0.93,0.017,1.998,0.042,3.206,0.074c1.43-0.017,2.853-0.041,4.267-0.074c1.645,0,2.94,0.37,3.886,1.108
			c0.937,0.723,1.414,1.806,1.43,3.251c-0.096,1.494-0.557,2.537-1.383,3.128c-0.39,0.32-0.862,0.579-1.418,0.775
			c-0.541,0.206-1.145,0.382-1.812,0.53c1.778,2.102,3.56,4.195,5.346,6.28c0.262,0.271,0.572,0.542,0.929,0.813
			c0.326,0.287,0.615,0.48,0.87,0.579c0.413,0.064,0.619,0.188,0.619,0.372c0,0.129-0.139,0.193-0.417,0.193
			c-0.199,0-0.492-0.017-0.881-0.049c-0.373-0.016-0.738-0.024-1.096-0.024h-1.81c-1.524-2.002-3.061-3.991-4.609-5.969
			c-0.421-0.624-0.778-1.087-1.072-1.391c-0.294-0.271-0.667-0.406-1.119-0.406c-0.326,0.017-0.481,0.161-0.465,0.432v4.217
			c0,0.945,0.131,1.619,0.394,2.022c0.246,0.403,0.627,0.612,1.144,0.629c0.373,0,0.619,0.016,0.738,0.048
			c0.08,0.048,0.119,0.124,0.119,0.228c0,0.176-0.155,0.264-0.465,0.264c-0.914-0.032-1.979-0.056-3.194-0.072
			c-1.208,0.016-2.277,0.04-3.206,0.072c-0.31,0-0.465-0.088-0.465-0.264c-0.017-0.104,0.035-0.18,0.155-0.228
			c0.096-0.032,0.331-0.048,0.706-0.048c0.542-0.017,0.944-0.226,1.207-0.629c0.223-0.403,0.335-1.077,0.335-2.022V111.364z
			 M267.716,108.71c-0.993,0-1.489,0.177-1.489,0.531v7.506h1.12c1.533,0.017,2.665-0.271,3.395-0.864
			c0.683-0.601,1.024-1.695,1.024-3.284c-0.016-1.465-0.389-2.494-1.12-3.087C269.9,108.978,268.923,108.71,267.716,108.71z"/>
		<path fill="#F47C20" d="M281.893,111.365c0-0.98-0.112-1.671-0.335-2.075c-0.263-0.404-0.666-0.597-1.207-0.581
			c-0.375-0.016-0.61-0.048-0.706-0.096c-0.12-0.016-0.172-0.076-0.155-0.18c0-0.176,0.155-0.264,0.465-0.264
			c1.939,0.017,3.878,0.042,5.817,0.074c1.955-0.017,3.866-0.041,5.734-0.074c0.247-0.016,0.377,0.083,0.394,0.295v2.853
			c0,0.336-0.092,0.496-0.274,0.479c-0.175,0-0.286-0.12-0.333-0.358c-0.072-1.045-0.381-1.753-0.93-2.124
			c-0.557-0.371-1.534-0.547-2.933-0.531c-0.667,0-1.204,0-1.609,0s-0.708,0.017-0.906,0.049c-0.19,0.017-0.322,0.049-0.393,0.099
			c-0.064,0.09-0.096,0.185-0.096,0.284v6.854c0.914,0.017,1.768-0.152,2.563-0.506c0.405-0.206,0.731-0.478,0.978-0.815
			c0.246-0.321,0.385-0.733,0.417-1.235c0.032-0.354,0.071-0.588,0.119-0.704c0.048-0.091,0.131-0.136,0.25-0.136
			c0.207,0,0.31,0.103,0.31,0.308c-0.016,1.042-0.04,2.093-0.072,3.151c0.016,1.042,0.04,2.093,0.072,3.151
			c0,0.197-0.088,0.295-0.263,0.295c-0.087,0.025-0.155-0.024-0.203-0.147c-0.063-0.115-0.135-0.35-0.214-0.703
			c-0.167-0.806-0.524-1.352-1.073-1.64c-0.556-0.271-1.24-0.407-2.05-0.407h-0.834v4.648c0,0.55,0.04,1.031,0.12,1.442
			c0.103,0.403,0.266,0.736,0.488,0.999c0.445,0.542,1.471,0.814,3.076,0.814c0.413,0,0.791-0.025,1.132-0.074
			c0.342-0.033,0.64-0.082,0.894-0.148c0.541-0.14,0.981-0.329,1.323-0.567c0.652-0.485,1.033-1.138,1.145-1.96
			c0.08-0.477,0.218-0.707,0.417-0.69c0.127,0,0.199,0.103,0.215,0.307c0,0.287-0.016,0.679-0.048,1.179
			c-0.063,0.541-0.095,1.003-0.095,1.388v0.86c0,0.213-0.131,0.319-0.394,0.319c-2.114-0.032-4.236-0.056-6.366-0.072
			c-2.114,0.016-4.24,0.04-6.378,0.072c-0.31,0-0.465-0.088-0.465-0.265c-0.017-0.104,0.035-0.18,0.155-0.228
			c0.096-0.032,0.331-0.048,0.706-0.048c0.542-0.017,0.944-0.226,1.207-0.629c0.223-0.402,0.335-1.076,0.335-2.021V111.365z"/>
	</g>
</g>
</svg>
