<svg version="1.1" id="ferris" xmlns="http://www.w3.org/2000/svg" xmlns:xlink="http://www.w3.org/1999/xlink" x="0px" y="0px"
	 width="1239.476px" height="536.506px" viewBox="-844.093 0 1239.476 536.506"
	 enable-background="new -844.093 0 1239.476 536.506" xml:space="preserve">
<g id="bsharisemoore">
	<path id="B" fill="#F47C20" d="M-804.262,429.293c0-5.895-0.741-10.058-2.224-12.484c-1.58-2.428-4.186-3.596-7.82-3.497
		c-2.727-0.095-4.471-0.288-5.236-0.575c-0.817-0.1-1.176-0.457-1.076-1.087c0-0.67,0.286-1.151,0.857-1.443
		c0.617-0.095,1.642-0.144,3.073-0.144c5.859,0.099,12.507,0.246,19.938,0.443c6.528-0.099,12.77-0.246,18.725-0.443
		c11.15,0,19.938,1.826,26.372,5.479c6.335,3.702,9.552,9.65,9.648,17.845c-0.097,13.031-8.196,20.979-24.297,23.842v0.296
		c9.967,0.593,18.246,3.061,24.842,7.404c6.499,4.442,9.796,11.526,9.895,21.251c-0.193,9.921-4.354,16.832-12.486,20.731
		c-8.132,3.851-18.083,5.727-29.852,5.627c-7.32-0.193-14.903-0.337-22.748-0.436c-7.464,0.099-14.138,0.242-20.022,0.436
		c-2.729,0-4.045-0.53-3.945-1.587c-0.101-0.626,0.259-1.086,1.076-1.374c0.765-0.189,2.509-0.288,5.236-0.288
		c3.634-0.099,6.24-1.366,7.82-3.793c1.483-2.423,2.224-6.482,2.224-12.18V429.293z M-789.022,495.767
		c-0.101,8.914,4.946,13.423,15.142,13.521c16.076,0.197,24.113-8.075,24.113-24.813c0-9.511-2.678-16.097-8.038-19.762
		c-5.405-3.364-13.492-4.978-24.257-4.829c-2.966,0-4.831,0.148-5.596,0.444c-1.01,0.3-1.464,0.896-1.364,1.785V495.767z
		 M-789.022,453.966c0,1.933,1.23,2.825,3.692,2.678c18.128,0.444,27.289-6.742,27.48-21.555c-0.097-8.124-2.18-13.871-6.248-17.244
		c-4.072-3.118-9.422-4.632-16.049-4.533c-5.917,0-8.875,1.069-8.875,3.196V453.966z"/>
	<path id="period" fill="#F47C20" d="M-697.39,512.982c-2.248-0.099-4.161-1.003-5.741-2.727c-1.769-1.571-2.655-3.514-2.655-5.821
		c0-2.455,0.887-4.521,2.655-6.19c1.58-1.621,3.493-2.431,5.741-2.431c2.345,0,4.354,0.81,6.028,2.431
		c1.53,1.67,2.297,3.735,2.297,6.19c0,2.308-0.767,4.25-2.297,5.821C-693.036,511.979-695.045,512.883-697.39,512.982z"/>
	<path id="S_1_" fill="#F47C20" d="M-627.135,483.92c0-1.731,0.693-2.596,2.082-2.596c1.337,0,2.055,0.963,2.149,2.892
		c0.336,1.634,1.076,3.854,2.224,6.677c1.004,2.966,2.579,6.006,4.73,9.119c2.151,2.966,4.994,5.517,8.531,7.639
		c3.297,2.328,7.456,3.488,12.475,3.488c7.598-0.099,13.262-2.221,16.991-6.376c3.63-3.948,5.446-8.617,5.446-14.002
		c0-3.756-0.693-6.993-2.078-9.708c-1.436-2.715-3.443-4.94-6.022-6.672c-2.342-1.925-5.066-3.653-8.173-5.184
		c-3.153-1.382-6.355-2.743-9.605-4.076c-3.202-1.534-6.333-3.089-9.391-4.669c-3.011-1.629-5.784-3.554-8.315-5.779
		c-2.343-2.324-4.303-5.063-5.878-8.223c-1.58-3.213-2.367-6.993-2.367-11.337c0.191-9.634,3.511-16.627,9.958-20.975
		c6.162-4.249,12.826-6.372,19.992-6.372c3.819,0,6.95,0.292,9.385,0.881c2.34,0.633,4.251,1.439,5.732,2.414
		c1.528,0.831,2.84,1.584,3.941,2.267c1.098,0.781,2.269,1.177,3.511,1.177c0.572,0,1.073-0.342,1.503-1.024
		c0.288-0.489,0.527-1.095,0.718-1.826c0.189-1.658,0.668-2.555,1.432-2.703c1.195,0,1.792,0.864,1.792,2.588
		c0.095,7.392,0.238,14.656,0.43,21.802c0,2.023-0.526,3.035-1.578,3.035c-0.43,0-0.884-0.543-1.362-1.629
		c-0.573-1.036-1.1-2.324-1.579-3.854c-1.863-6.376-4.951-11.222-9.253-14.537c-4.447-3.262-9.206-4.895-14.276-4.895
		c-5.309,0.099-9.613,1.629-12.912,4.595c-3.635,3.113-5.451,7.038-5.451,11.785c0.095,6.52,2.937,11.436,8.529,14.742
		c2.532,1.729,5.424,3.361,8.673,4.892c3.105,1.484,6.38,2.99,9.821,4.521c7.023,2.813,13.235,6.573,18.636,11.263
		c2.532,2.423,4.54,5.339,6.021,8.745c1.48,3.46,2.223,7.61,2.223,12.447c-0.241,10.029-3.821,17.565-10.743,22.6
		c-6.828,5.191-15.421,7.783-25.783,7.783c-3.914-0.099-7.304-0.613-10.168-1.543c-2.818-0.88-5.253-1.884-7.306-3.011
		c-2.05-1.173-3.723-2.226-5.012-3.155c-1.24-0.785-2.41-1.177-3.509-1.177c-0.478,0-0.86,0.247-1.146,0.741
		c-0.286,0.543-0.599,1.11-0.932,1.703c-0.191,0.596-0.43,1.144-0.716,1.637c-0.381,0.642-0.86,0.963-1.432,0.963
		c-0.623,0-1.078-0.37-1.363-1.115c-0.383-0.493-0.574-1.086-0.574-1.781V483.92z"/>
	<path id="H" fill="#F47C20" d="M-484.678,476.998h-37.744v21.982c0,3.978,0.551,6.812,1.656,8.507
		c1.036,1.694,2.661,2.575,4.87,2.641c1.571,0,2.592,0.07,3.061,0.206c0.335,0.201,0.502,0.518,0.502,0.958
		c0,0.745-0.654,1.115-1.96,1.115c-3.817-0.141-8.306-0.239-13.466-0.305c-5.09,0.065-9.578,0.164-13.463,0.305
		c-1.308,0-1.96-0.37-1.96-1.115c-0.069-0.44,0.132-0.757,0.603-0.958c0.401-0.136,1.388-0.206,2.963-0.206
		c2.275-0.065,3.966-0.95,5.072-2.649c0.971-1.694,1.456-4.532,1.456-8.511V454.11c0-4.122-0.485-7.025-1.456-8.721
		c-1.106-1.694-2.797-2.509-5.072-2.443c-1.575-0.065-2.563-0.197-2.963-0.403c-0.471-0.065-0.672-0.32-0.603-0.757
		c0-0.74,0.652-1.114,1.96-1.114c3.885,0.069,8.373,0.177,13.463,0.313c5.16-0.07,9.648-0.173,13.466-0.313
		c1.306,0,1.96,0.374,1.96,1.114c0,0.437-0.167,0.691-0.502,0.757c-0.469,0.202-1.489,0.338-3.061,0.403
		c-2.209-0.065-3.834,0.749-4.87,2.443c-1.104,1.695-1.656,4.604-1.656,8.725v19.478h37.744v-19.478
		c0-4.121-0.486-7.029-1.457-8.725c-1.072-1.694-2.744-2.509-5.019-2.443c-1.573-0.065-2.561-0.197-2.961-0.403
		c-0.504-0.065-0.722-0.32-0.652-0.757c0-0.74,0.652-1.114,1.958-1.114c3.914,0.069,8.417,0.177,13.505,0.313
		c5.121-0.07,9.607-0.173,13.455-0.313c1.306,0,1.96,0.374,1.96,1.114c0,0.437-0.185,0.691-0.555,0.757
		c-0.471,0.202-1.493,0.338-3.071,0.403c-2.182-0.065-3.795,0.749-4.835,2.443c-1.109,1.695-1.662,4.599-1.662,8.721v44.857
		c0,3.979,0.553,6.816,1.662,8.511c1.04,1.699,2.653,2.584,4.835,2.649c1.578,0,2.6,0.07,3.071,0.206
		c0.371,0.201,0.555,0.518,0.555,0.958c0,0.745-0.654,1.115-1.96,1.115c-3.848-0.141-8.334-0.239-13.455-0.305
		c-5.088,0.065-9.591,0.164-13.505,0.305c-1.306,0-1.958-0.37-1.958-1.115c-0.07-0.44,0.148-0.757,0.652-0.958
		c0.401-0.136,1.388-0.206,2.961-0.206c2.275-0.065,3.947-0.946,5.019-2.641c0.971-1.695,1.457-4.529,1.457-8.507V476.998z"/>
	<path id="A" fill="#F47C20" d="M-416.1,439.063h3.714l22.688,60.534c1.238,3.217,2.544,5.742,3.916,7.577
		c1.304,1.834,3.027,2.817,5.168,2.953c2.384,0.14,3.472,0.457,3.264,0.963c0,0.608-0.101,0.946-0.303,1.012
		c-0.267,0.201-0.919,0.305-1.956,0.305c-4.184-0.141-8.367-0.239-12.548-0.305c-4.186,0.065-8.367,0.164-12.55,0.305
		c-1.841,0.065-2.727-0.37-2.66-1.316c-0.133-0.576,1.037-0.893,3.513-0.963c3.212-0.14,4.786-1.555,4.718-4.262
		c-0.065-1.209-0.368-2.908-0.903-5.093c-0.638-2.213-1.407-4.413-2.31-6.598l-2.961-8.104h-26.1l-5.771,16.211
		c-0.335,0.901-0.504,1.954-0.504,3.172c0,1.629,0.619,2.772,1.857,3.427c1.104,0.695,2.443,1.106,4.017,1.246
		c1.907,0.206,2.793,0.526,2.66,0.963c0,0.608-0.099,0.946-0.3,1.012c-0.268,0.201-0.854,0.305-1.757,0.305
		c-3.214-0.141-6.427-0.239-9.638-0.305c-3.245,0.065-6.477,0.164-9.688,0.305c-1.308,0-1.927-0.44-1.857-1.316
		c-0.138-0.437,0.58-0.757,2.158-0.963c1.172-0.14,2.274-0.448,3.313-0.934c1.003-0.448,1.991-1.197,2.961-2.233
		c1.841-1.941,3.963-5.994,6.374-12.16L-416.1,439.063z M-417.958,452.102c-0.066,0-0.134,0-0.2,0l-12.147,31.074h23.893
		L-417.958,452.102z"/>
	<path id="R_1_" fill="#F47C20" d="M-356.866,454.126c0-4.122-0.471-7.034-1.411-8.737c-1.106-1.694-2.804-2.509-5.084-2.443
		c-1.58-0.065-2.569-0.197-2.973-0.403c-0.506-0.065-0.724-0.32-0.654-0.757c0-0.74,0.652-1.114,1.958-1.114
		c3.916,0.069,8.417,0.177,13.504,0.313c6.024-0.07,12.016-0.173,17.972-0.313c6.927,0,12.384,1.559,16.368,4.669
		c3.947,3.044,5.956,7.609,6.024,13.697c-0.403,6.294-2.345,10.683-5.825,13.172c-1.641,1.349-3.632,2.439-5.975,3.266
		c-2.277,0.868-4.821,1.612-7.633,2.234c7.489,8.852,14.996,17.671,22.52,26.453c1.104,1.144,2.408,2.283,3.912,3.423
		c1.372,1.209,2.591,2.023,3.663,2.439c1.738,0.268,2.607,0.794,2.607,1.567c0,0.543-0.586,0.814-1.756,0.814
		c-0.837,0-2.073-0.074-3.713-0.21c-1.571-0.07-3.109-0.103-4.615-0.103h-7.624c-6.421-8.434-12.892-16.813-19.414-25.143
		c-1.772-2.624-3.276-4.578-4.515-5.857c-1.238-1.14-2.81-1.711-4.714-1.711c-1.374,0.07-2.026,0.675-1.958,1.818v17.762
		c0,3.982,0.553,6.82,1.658,8.515c1.037,1.699,2.641,2.584,4.817,2.649c1.571,0,2.608,0.07,3.11,0.206
		c0.335,0.201,0.502,0.518,0.502,0.958c0,0.745-0.652,1.115-1.958,1.115c-3.848-0.141-8.333-0.239-13.453-0.305
		c-5.088,0.065-9.59,0.164-13.504,0.305c-1.306,0-1.958-0.37-1.958-1.115c-0.07-0.44,0.148-0.757,0.654-0.958
		c0.403-0.136,1.393-0.206,2.973-0.206c2.28-0.065,3.978-0.95,5.084-2.649c0.94-1.694,1.411-4.532,1.411-8.515V454.126z
		 M-339.926,442.946c-4.182,0-6.273,0.749-6.273,2.238V476.8h4.718c6.456,0.073,11.224-1.144,14.3-3.637
		c2.875-2.534,4.315-7.141,4.315-13.834c-0.068-6.174-1.64-10.506-4.716-13.002C-330.727,444.073-334.842,442.946-339.926,442.946z"
		/>
	<path id="I" fill="#F47C20" d="M-278.187,454.11c0-4.122-0.485-7.025-1.456-8.721c-1.07-1.694-2.742-2.509-5.017-2.443
		c-1.571-0.065-2.559-0.197-2.96-0.403c-0.504-0.065-0.722-0.32-0.651-0.757c0-0.74,0.649-1.114,1.954-1.114
		c3.91,0.069,8.404,0.177,13.484,0.313c5.113-0.07,9.591-0.173,13.433-0.313c1.304,0,1.954,0.374,1.954,1.114
		c0,0.437-0.167,0.691-0.5,0.757c-0.502,0.202-1.538,0.338-3.107,0.403c-2.172-0.065-3.776,0.749-4.813,2.443
		c-1.102,1.695-1.654,4.599-1.654,8.721v44.857c0,3.979,0.552,6.816,1.654,8.511c1.037,1.699,2.641,2.584,4.813,2.649
		c1.569,0,2.605,0.07,3.107,0.206c0.333,0.201,0.5,0.518,0.5,0.958c0,0.745-0.65,1.115-1.954,1.115
		c-3.842-0.141-8.319-0.239-13.433-0.305c-5.08,0.065-9.574,0.164-13.484,0.305c-1.304,0-1.954-0.37-1.954-1.115
		c-0.07-0.44,0.147-0.757,0.651-0.958c0.401-0.136,1.389-0.206,2.96-0.206c2.274-0.065,3.947-0.95,5.017-2.645
		c0.971-1.699,1.456-4.537,1.456-8.516V454.11z"/>
	<path id="S" fill="#F47C20" d="M-244.022,492.374c0-1.213,0.485-1.818,1.457-1.818c0.936,0,1.439,0.675,1.505,2.024
		c0.235,1.144,0.753,2.698,1.558,4.673c0.701,2.077,1.806,4.204,3.311,6.384c1.505,2.077,3.495,3.858,5.971,5.348
		c2.308,1.629,5.218,2.443,8.733,2.443c5.319-0.074,9.282-1.559,11.892-4.463c2.542-2.769,3.813-6.034,3.813-9.803
		c0-2.628-0.483-4.895-1.454-6.795c-1.003-1.9-2.41-3.46-4.216-4.669c-1.64-1.35-3.546-2.559-5.72-3.633
		c-2.207-0.967-4.449-1.917-6.724-2.854c-2.242-1.069-4.435-2.159-6.576-3.266c-2.106-1.14-4.047-2.489-5.821-4.048
		c-1.639-1.621-3.011-3.542-4.113-5.755c-1.104-2.25-1.658-4.892-1.658-7.936c0.134-6.746,2.458-11.637,6.972-14.681
		c4.313-2.974,8.976-4.463,13.992-4.463c2.676,0,4.866,0.205,6.571,0.617c1.637,0.443,2.974,1.008,4.011,1.694
		c1.071,0.576,1.991,1.106,2.76,1.588c0.769,0.543,1.588,0.818,2.458,0.818c0.401,0,0.751-0.238,1.053-0.716
		c0.2-0.341,0.366-0.769,0.502-1.279c0.131-1.16,0.467-1.789,1.001-1.892c0.835,0,1.255,0.604,1.255,1.81
		c0.065,5.175,0.167,10.263,0.3,15.261c0,1.42-0.368,2.127-1.104,2.127c-0.3,0-0.619-0.383-0.955-1.14
		c-0.401-0.724-0.769-1.625-1.104-2.698c-1.306-4.463-3.465-7.856-6.477-10.177c-3.114-2.283-6.446-3.423-9.994-3.423
		c-3.714,0.066-6.73,1.14-9.04,3.213c-2.544,2.181-3.815,4.928-3.815,8.248c0.066,4.565,2.057,8.005,5.971,10.324
		c1.773,1.21,3.797,2.354,6.072,3.423c2.174,1.036,4.465,2.09,6.874,3.163c4.918,1.971,9.266,4.599,13.046,7.886
		c1.773,1.694,3.178,3.735,4.215,6.121c1.036,2.419,1.557,5.322,1.557,8.712c-0.169,7.021-2.676,12.296-7.52,15.82
		c-4.78,3.633-10.796,5.446-18.048,5.446c-2.742-0.065-5.113-0.428-7.118-1.077c-1.973-0.617-3.678-1.32-5.113-2.106
		c-1.438-0.822-2.608-1.563-3.509-2.213c-0.87-0.551-1.688-0.822-2.458-0.822c-0.333,0-0.601,0.172-0.8,0.518
		c-0.202,0.379-0.42,0.782-0.652,1.193c-0.136,0.419-0.302,0.798-0.502,1.144c-0.267,0.452-0.603,0.675-1.003,0.675
		c-0.434,0-0.753-0.26-0.955-0.777c-0.267-0.351-0.401-0.762-0.401-1.247V492.374z"/>
	<path id="E_1_" fill="#F47C20" d="M-174.062,454.134c0-4.13-0.471-7.042-1.411-8.741c-1.106-1.698-2.803-2.513-5.084-2.447
		c-1.58-0.065-2.569-0.197-2.972-0.403c-0.506-0.065-0.724-0.32-0.654-0.757c0-0.74,0.651-1.114,1.958-1.114
		c8.167,0.069,16.336,0.177,24.504,0.313c8.235-0.07,16.285-0.173,24.152-0.313c1.039-0.07,1.59,0.35,1.658,1.246v12.016
		c0,1.415-0.387,2.09-1.156,2.02c-0.736,0-1.205-0.502-1.405-1.51c-0.302-4.405-1.606-7.384-3.916-8.946
		c-2.345-1.563-6.462-2.304-12.353-2.238c-2.812,0-5.072,0-6.779,0c-1.707,0-2.98,0.07-3.817,0.206
		c-0.802,0.074-1.355,0.21-1.656,0.419c-0.27,0.379-0.403,0.782-0.403,1.193v28.877c3.851,0.065,7.448-0.642,10.796-2.135
		c1.707-0.868,3.079-2.012,4.118-3.436c1.037-1.349,1.623-3.085,1.756-5.199c0.134-1.489,0.301-2.48,0.502-2.966
		c0.202-0.383,0.554-0.571,1.055-0.571c0.87,0,1.306,0.432,1.306,1.296c-0.068,4.389-0.169,8.814-0.303,13.273
		c0.066,4.394,0.167,8.815,0.303,13.274c0,0.831-0.37,1.247-1.106,1.247c-0.368,0.103-0.652-0.107-0.854-0.626
		c-0.268-0.485-0.568-1.473-0.903-2.957c-0.703-3.394-2.209-5.697-4.519-6.907c-2.343-1.144-5.222-1.715-8.636-1.715h-3.515v19.576
		c0,2.32,0.169,4.344,0.504,6.075c0.434,1.699,1.121,3.098,2.057,4.208c1.876,2.283,6.195,3.427,12.958,3.427
		c1.74,0,3.33-0.103,4.77-0.313c1.439-0.136,2.694-0.346,3.766-0.621c2.277-0.593,4.134-1.387,5.574-2.39
		c2.746-2.045,4.352-4.793,4.821-8.256c0.335-2.008,0.919-2.979,1.756-2.908c0.537,0,0.837,0.432,0.905,1.296
		c0,1.205-0.068,2.858-0.202,4.96c-0.267,2.279-0.4,4.229-0.4,5.85v3.62c0,0.896-0.554,1.35-1.658,1.35
		c-8.903-0.141-17.842-0.239-26.813-0.305c-8.906,0.065-17.861,0.164-26.865,0.305c-1.307,0-1.958-0.375-1.958-1.119
		c-0.07-0.437,0.147-0.757,0.654-0.954c0.403-0.141,1.392-0.206,2.972-0.206c2.281-0.065,3.978-0.95,5.084-2.649
		c0.94-1.694,1.411-4.532,1.411-8.515V454.134z"/>
	<path id="M" fill="#F47C20" d="M-54.585,429.26c0-5.887-0.671-10.041-2.014-12.46c-1.582-2.423-4.004-3.587-7.265-3.488
		c-2.256-0.095-3.671-0.288-4.245-0.575c-0.722-0.1-1.034-0.457-0.936-1.087c0-1.057,0.934-1.587,2.799-1.587
		c3.639,0.099,7.277,0.246,10.914,0.443c3.636-0.099,7.25-0.246,10.841-0.443h2.511c1.389,0,2.275,0.493,2.657,1.48l32.38,77.721
		L25.075,412.3c0.479-1.489,1.316-2.237,2.513-2.237c4.015,0.099,8.034,0.246,12.052,0.443c4.019-0.099,8.036-0.246,12.055-0.443
		c1.866,0,2.799,0.53,2.799,1.587c0,0.63-0.265,0.987-0.792,1.087c-0.672,0.287-2.137,0.48-4.391,0.575
		c-3.165-0.099-5.469,1.065-6.909,3.488c-1.583,2.419-2.374,6.573-2.374,12.46v64.08c0,5.688,0.79,9.741,2.374,12.164
		c1.44,2.423,3.744,3.686,6.909,3.784c2.254,0,3.719,0.099,4.391,0.288c0.527,0.288,0.792,0.748,0.792,1.374
		c0,1.057-0.934,1.587-2.799,1.587c-5.502-0.193-11.913-0.337-19.232-0.436c-7.271,0.099-13.706,0.242-19.303,0.436
		c-1.868,0-2.799-0.53-2.799-1.587c-0.099-0.626,0.212-1.086,0.934-1.374c0.574-0.189,1.984-0.288,4.234-0.288
		c3.254-0.099,5.648-1.361,7.178-3.784c1.395-2.419,2.092-6.476,2.092-12.164v-68.416h-0.296l-35.606,85.179
		c-0.382,1.324-0.909,1.991-1.579,1.991c-0.814,0-1.461-0.617-1.938-1.852l-35.249-86.918h-0.286v70.016
		c0,5.688,0.765,9.741,2.297,12.164c1.483,2.423,3.803,3.686,6.962,3.784c2.248,0,3.708,0.099,4.379,0.288
		c0.479,0.288,0.718,0.748,0.718,1.374c0,1.057-0.934,1.587-2.801,1.587c-4.595-0.193-9.189-0.337-13.784-0.436
		c-4.597,0.099-9.216,0.242-13.858,0.436c-1.868,0-2.801-0.53-2.801-1.587c-0.099-0.626,0.214-1.086,0.936-1.374
		c0.574-0.189,1.989-0.288,4.245-0.288c3.26-0.099,5.683-1.361,7.265-3.784c1.343-2.419,2.014-6.476,2.014-12.164V429.26z"/>
	<path id="O_1_" fill="#F47C20" d="M71.057,476.537c0.066-11.192,3.663-20.214,10.79-27.055
		c6.995-6.873,16.144-10.345,27.456-10.419c11.378,0.074,20.56,3.546,27.552,10.419c7.063,6.841,10.629,15.862,10.695,27.055
		c-0.066,11.094-3.632,20.041-10.695,26.849c-6.993,6.948-16.174,10.485-27.552,10.625c-11.312-0.14-20.46-3.677-27.456-10.625
		C74.72,496.578,71.123,487.63,71.057,476.537z M83.796,476.537c0,8.931,2.092,16.906,6.279,23.933
		c4.114,7.306,10.522,11.057,19.227,11.267c8.704-0.21,15.146-3.961,19.33-11.267c4.118-7.026,6.174-15.002,6.174-23.933
		c0-8.996-2.057-17.042-6.174-24.138c-4.184-7.166-10.625-10.852-19.33-11.058c-8.704,0.206-15.113,3.892-19.227,11.058
		C85.888,459.495,83.796,467.541,83.796,476.537z"/>
	<path id="O" fill="#F47C20" d="M159.479,476.537c0.065-11.192,3.661-20.214,10.79-27.055c6.997-6.873,16.146-10.345,27.458-10.419
		c11.374,0.074,20.56,3.546,27.552,10.419c7.06,6.841,10.626,15.862,10.691,27.055c-0.065,11.094-3.632,20.041-10.691,26.849
		c-6.992,6.948-16.178,10.485-27.552,10.625c-11.312-0.14-20.46-3.677-27.458-10.625C163.14,496.578,159.544,487.63,159.479,476.537
		z M172.218,476.537c0,8.931,2.094,16.906,6.277,23.933c4.118,7.306,10.526,11.057,19.23,11.267
		c8.7-0.21,15.146-3.961,19.325-11.267c4.122-7.026,6.179-15.002,6.179-23.933c0-8.996-2.057-17.042-6.179-24.138
		c-4.18-7.166-10.625-10.852-19.325-11.058c-8.704,0.206-15.113,3.892-19.23,11.058
		C174.312,459.495,172.218,467.541,172.218,476.537z"/>
	<path id="R" fill="#F47C20" d="M258.836,454.126c0-4.122-0.469-7.034-1.407-8.737c-1.11-1.694-2.806-2.509-5.084-2.443
		c-1.579-0.065-2.571-0.197-2.974-0.403c-0.506-0.065-0.725-0.32-0.654-0.757c0-0.74,0.65-1.114,1.958-1.114
		c3.916,0.069,8.416,0.177,13.505,0.313c6.025-0.07,12.016-0.173,17.972-0.313c6.927,0,12.382,1.559,16.367,4.669
		c3.945,3.044,5.956,7.609,6.026,13.697c-0.403,6.294-2.345,10.683-5.824,13.172c-1.646,1.349-3.637,2.439-5.978,3.266
		c-2.274,0.868-4.821,1.612-7.63,2.234c7.486,8.852,14.993,17.671,22.517,26.453c1.103,1.144,2.411,2.283,3.912,3.423
		c1.37,1.209,2.592,2.023,3.665,2.439c1.736,0.268,2.608,0.794,2.608,1.567c0,0.543-0.589,0.814-1.761,0.814
		c-0.835,0-2.073-0.074-3.711-0.21c-1.57-0.07-3.109-0.103-4.615-0.103h-7.626c-6.417-8.434-12.892-16.813-19.411-25.143
		c-1.773-2.624-3.279-4.578-4.514-5.857c-1.242-1.14-2.813-1.711-4.713-1.711c-1.375,0.07-2.028,0.675-1.959,1.818v17.762
		c0,3.982,0.552,6.82,1.654,8.515c1.036,1.699,2.641,2.584,4.82,2.649c1.572,0,2.608,0.07,3.11,0.206
		c0.333,0.201,0.502,0.518,0.502,0.958c0,0.745-0.654,1.115-1.958,1.115c-3.851-0.141-8.334-0.239-13.455-0.305
		c-5.089,0.065-9.589,0.164-13.505,0.305c-1.308,0-1.958-0.37-1.958-1.115c-0.07-0.44,0.148-0.757,0.654-0.958
		c0.402-0.136,1.395-0.206,2.974-0.206c2.278-0.065,3.974-0.95,5.084-2.649c0.938-1.694,1.407-4.532,1.407-8.515V454.126z
		 M275.776,442.946c-4.18,0-6.27,0.749-6.27,2.238V476.8h4.715c6.458,0.073,11.226-1.144,14.303-3.637
		c2.875-2.534,4.314-7.141,4.314-13.834c-0.065-6.174-1.637-10.506-4.714-13.002C284.977,444.073,280.86,442.946,275.776,442.946z"
		/>
	<path id="E" fill="#F47C20" d="M335.496,454.134c0-4.13-0.474-7.042-1.415-8.741c-1.103-1.698-2.801-2.513-5.084-2.447
		c-1.58-0.065-2.567-0.197-2.971-0.403c-0.506-0.065-0.724-0.32-0.654-0.757c0-0.74,0.654-1.114,1.959-1.114
		c8.165,0.069,16.334,0.177,24.504,0.313c8.234-0.07,16.285-0.173,24.154-0.313c1.037-0.07,1.588,0.35,1.653,1.246v12.016
		c0,1.415-0.386,2.09-1.151,2.02c-0.74,0-1.209-0.502-1.407-1.51c-0.304-4.405-1.604-7.384-3.916-8.946
		c-2.345-1.563-6.462-2.304-12.353-2.238c-2.81,0-5.072,0-6.779,0s-2.982,0.07-3.817,0.206c-0.802,0.074-1.353,0.21-1.657,0.419
		c-0.268,0.379-0.403,0.782-0.403,1.193v28.877c3.851,0.065,7.449-0.642,10.798-2.135c1.707-0.868,3.081-2.012,4.117-3.436
		c1.037-1.349,1.621-3.085,1.757-5.199c0.136-1.489,0.3-2.48,0.502-2.966c0.202-0.383,0.556-0.571,1.058-0.571
		c0.867,0,1.304,0.432,1.304,1.296c-0.07,4.389-0.169,8.814-0.301,13.273c0.066,4.394,0.165,8.815,0.301,13.274
		c0,0.831-0.37,1.247-1.106,1.247c-0.371,0.103-0.65-0.107-0.855-0.626c-0.264-0.485-0.568-1.473-0.901-2.957
		c-0.703-3.394-2.209-5.697-4.521-6.907c-2.341-1.144-5.221-1.715-8.635-1.715h-3.517v19.576c0,2.32,0.173,4.344,0.506,6.075
		c0.433,1.699,1.123,3.098,2.057,4.208c1.876,2.283,6.195,3.427,12.958,3.427c1.74,0,3.328-0.103,4.768-0.313
		c1.439-0.136,2.698-0.346,3.768-0.621c2.279-0.593,4.134-1.387,5.574-2.39c2.743-2.045,4.352-4.793,4.82-8.256
		c0.334-2.008,0.918-2.979,1.757-2.908c0.534,0,0.839,0.432,0.905,1.296c0,1.205-0.066,2.858-0.202,4.96
		c-0.267,2.279-0.399,4.229-0.399,5.85v3.62c0,0.896-0.555,1.35-1.661,1.35c-8.901-0.141-17.841-0.239-26.812-0.305
		c-8.906,0.065-17.861,0.164-26.865,0.305c-1.305,0-1.959-0.375-1.959-1.119c-0.069-0.437,0.148-0.757,0.654-0.954
		c0.403-0.141,1.391-0.206,2.971-0.206c2.283-0.065,3.981-0.95,5.084-2.649c0.941-1.694,1.415-4.532,1.415-8.515V454.134z"/>
</g>
<g id="foundation">
	<path id="balance" d="M313.151,377.447l-90.91-197.855c0.479-1.995,0.737-4.075,0.737-6.216c0-14.705-11.921-26.626-26.626-26.626
		c-14.704,0-26.626,11.921-26.626,26.626c0,3.806,0.804,7.422,2.243,10.696L83.118,377.447l33.438,0.277l78.521-177.755
		c0.423,0.02,0.848,0.032,1.275,0.032c1.594,0,3.152-0.148,4.67-0.417l78.691,178.138L313.151,377.447z"/>
	<path id="wheel" d="M344.934,178.334c0-81.064-65.95-147.015-147.015-147.015c-81.064,0-147.015,65.951-147.015,147.015
		s65.951,147.015,147.015,147.015c45.561,0,86.346-20.833,113.333-53.473l0.764,0.653l1.951-2.278l-0.829-0.711
		C333.034,244.458,344.934,212.762,344.934,178.334z M308.581,265.638l-106.631-91.33h136.924c0.037,1.338,0.062,2.68,0.062,4.026
		C338.934,211.273,327.579,241.608,308.581,265.638z M201.762,171.308l100.439-87.8c21.336,23.443,34.896,54.083,36.557,87.8
		H201.762z M300.157,81.311l-101.003,88.292V37.335C238.863,37.678,274.708,54.509,300.157,81.311z M196.154,37.342v132.002
		L94.658,82.412C120.051,55.095,156.118,37.836,196.154,37.342z M193.835,171.308H57.08c1.637-33.183,14.801-63.38,35.558-86.676
		L193.835,171.308z M56.966,174.308h136.806L88.1,266.682c-19.501-24.19-31.195-54.927-31.195-88.348
		C56.905,176.987,56.928,175.646,56.966,174.308z M90.007,269l106.147-92.791v143.117C153.607,318.8,115.542,299.343,90.007,269z
		 M199.154,319.333V175.863l107.544,92.111C281.056,299.035,242.395,318.96,199.154,319.333z"/>
</g>
<g id="cabins">
	<g id="seven">
		<path d="M92.154,182.308v-8h-64v8h2v23h-0.162c0,0,2.416,12.99,5.799,15.406c3.382,2.416,50.736,2.361,54.119-0.055
			c3.383-2.416,1.933-15.352,1.933-15.352h-0.688v-23H92.154z M31.154,205.308v-23h5v23H31.154z M37.154,205.308v-23h50v23H37.154z
			 M88.154,205.308v-23h2v23H88.154z"/>
		<g>

				<rect x="34.1" y="214.144" transform="matrix(-0.4228 -0.9062 0.9062 -0.4228 -140.1052 340.055)" fill="#FFFFFF" width="8.276" height="1"/>
		</g>
	</g>
	<g id="six">
		<path d="M375.154,182.308v-8h-64v8h2v23h-0.161c0,0,2.416,12.99,5.799,15.406c3.381,2.416,50.735,2.361,54.119-0.055
			c3.383-2.416,1.932-15.352,1.932-15.352h-0.688v-23H375.154z M314.154,205.308v-23h5v23H314.154z M320.154,205.308v-23h50v23
			H320.154z M371.154,205.308v-23h2v23H371.154z"/>
		<g>

				<rect x="317.104" y="214.148" transform="matrix(-0.4229 -0.9062 0.9062 -0.4229 262.5807 596.5248)" fill="#FFFFFF" width="8.276" height="1"/>
		</g>
	</g>
	<g id="five">
		<path d="M345.154,275.308v-8h-64v8h2v23h-0.161c0,0,2.416,12.99,5.799,15.406c3.381,2.416,50.735,2.361,54.119-0.055
			c3.383-2.416,1.932-15.353,1.932-15.353h-0.688v-23L345.154,275.308L345.154,275.308z M284.154,298.308v-23h5v23H284.154z
			 M290.154,298.308v-23h50v23H290.154z M341.154,298.308v-23h2v23H341.154z"/>
		<g>

				<rect x="287.102" y="307.149" transform="matrix(-0.4229 -0.9062 0.9062 -0.4229 135.6159 701.6666)" fill="#FFFFFF" width="8.276" height="1"/>
		</g>
	</g>
	<g id="four">
		<path d="M233.154,332.308v-8h-64v8h2v23h-0.162c0,0,2.416,12.99,5.799,15.406c3.382,2.416,50.736,2.361,54.12-0.055
			c3.383-2.416,1.932-15.354,1.932-15.354h-0.688v-23h0.999V332.308z M172.154,355.308v-23h5v23H172.154z M178.154,355.308v-23h50
			v23H178.154z M229.154,355.308v-23h2v23H229.154z"/>
		<g>

				<rect x="175.1" y="364.148" transform="matrix(-0.4229 -0.9062 0.9062 -0.4229 -75.4023 681.275)" fill="#FFFFFF" width="8.276" height="1"/>
		</g>
	</g>
	<g id="three">
		<path d="M117.154,275.308v-8h-64v8h2v23h-0.162c0,0,2.416,12.99,5.799,15.406c3.382,2.416,50.736,2.361,54.119-0.055
			c3.383-2.416,1.933-15.353,1.933-15.353h-0.688v-23L117.154,275.308L117.154,275.308z M56.154,298.308v-23h5v23H56.154z
			 M62.154,298.308v-23h50v23H62.154z M113.154,298.308v-23h2v23H113.154z"/>
		<g>

				<rect x="59.1" y="307.145" transform="matrix(-0.4229 -0.9062 0.9062 -0.4229 -188.7937 495.062)" fill="#FFFFFF" width="8.276" height="1"/>
		</g>
	</g>
	<g id="two">
		<path d="M346.154,84.308v-8h-64v8h2v23h-0.161c0,0,2.416,12.991,5.799,15.407c3.381,2.416,50.735,2.36,54.119-0.056
			c3.383-2.416,1.932-15.351,1.932-15.351h-0.688v-23H346.154z M285.154,107.308v-23h5v23H285.154z M291.154,107.308v-23h50v23
			H291.154z M344.154,107.308h-2v-23h2V107.308z"/>
		<g>

				<rect x="288.105" y="116.147" transform="matrix(-0.4229 -0.9062 0.9062 -0.4229 310.1324 430.7999)" fill="#FFFFFF" width="8.276" height="1"/>
		</g>
	</g>
	<g id="one">
		<path d="M122.154,84.308v-8h-64v8h2v23h-0.162c0,0,2.416,12.991,5.799,15.407c3.382,2.416,50.736,2.36,54.119-0.056
			c3.383-2.416,1.933-15.351,1.933-15.351h-0.688v-23H122.154z M61.154,107.308v-23h5v23H61.154z M67.154,107.308v-23h50v23H67.154z
			 M118.154,107.308v-23h2v23H118.154z"/>
		<g>

				<rect x="64.102" y="116.143" transform="matrix(-0.4229 -0.9062 0.9062 -0.4229 -8.5992 227.8098)" fill="#FFFFFF" width="8.276" height="1"/>
		</g>
	</g>
	<g id="tilted">
		<path d="M232.698,28.237l-0.512,0.681l-18.383-13.825l0.601-0.799l-6.394-4.808l-38.466,51.15l6.395,4.808l1.202-1.598
			l18.383,13.825l0,0c0.02,0.01,11.82,5.864,15.782,4.614c3.963-1.252,32.362-39.145,32.465-43.3
			C243.874,34.827,232.698,28.237,232.698,28.237z M196.124,76.872l-18.382-13.824l3.005-3.997l18.382,13.823l0.601-0.799
			l-18.382-13.823l30.05-39.961l18.384,13.824l0.602-0.799L212,17.491l1.201-1.599l18.383,13.825l0.486-0.646L196.124,76.872z"/>
		<g>

				<rect x="203.737" y="76.132" transform="matrix(-0.9784 -0.2067 0.2067 -0.9784 395.4258 194.5709)" fill="#FFFFFF" width="8.276" height="1"/>
		</g>
	</g>
</g>
</svg>
