<svg version="1.1" id="mobile" xmlns="http://www.w3.org/2000/svg" xmlns:xlink="http://www.w3.org/1999/xlink" x="0px" y="0px"
	 width="100%" height="100%" viewBox="0 0 1021.562 1306.532" enable-background="new 0 0 1021.562 1306.532"
	 xml:space="preserve">
<g id="leftquote">
	<path fill="#1A2152" d="M35.478,45.816c12.36-21.408,23.771-30.531,53.187-30.531h9.121L85.531,36.509h-6.515
		c-6.33,0-11.695,3.165-15.35,9.495l-4.622,8.005h9.68L48.088,89.752H10.111L35.478,45.816z M91.141,45.816
		c12.36-21.408,23.77-30.531,53.186-30.531h9.123l-12.253,21.223h-6.517c-6.329,0-11.694,3.164-15.349,9.494l-4.622,8.006h9.682
		l-20.637,35.744H65.775L91.141,45.816z"/>
</g>
<g id="rightquote">
	<path fill="#1A2152" d="M980.73,1189.163c-13.213,22.885-25.406,32.635-56.848,32.635h-9.748l13.096-22.686h6.963
		c6.768,0,12.502-3.384,16.404-10.147l4.943-8.556h-10.35l22.057-38.205h40.592L980.73,1189.163z M921.234,1189.163
		c-13.211,22.885-25.406,32.635-56.848,32.635h-9.75l13.096-22.686h6.967c6.766,0,12.5-3.384,16.404-10.147l4.939-8.556h-10.348
		l22.057-38.205h40.594L921.234,1189.163z"/>
</g>
<g id="outlines">
	<polygon fill="#1A2152" points="942.508,1113.52 951.508,1113.52 951.508,23.52 165.508,23.52 165.508,32.52 942.508,32.52 	"/>
	<polygon fill="#1A2152" points="942.508,1246.52 942.508,1272.52 57.508,1272.52 57.508,118.52 48.508,118.52 48.508,1281.52
		951.508,1281.52 951.508,1246.52 	"/>
</g>
</svg>
