<svg version="1.1" id="Layer_1" xmlns="http://www.w3.org/2000/svg" xmlns:xlink="http://www.w3.org/1999/xlink" x="0px" y="0px"
	 width="1024px" height="576px" viewBox="0 0 1024 576" enable-background="new 0 0 1024 576" xml:space="preserve">

<g id="leftquote">
	<path fill="#1A2152" d="M44.969,57.297c12.36-21.409,23.771-30.532,53.187-30.532h9.121L95.023,47.989h-6.515
		c-6.33,0-11.695,3.165-15.35,9.495l-4.622,8.005h9.68L57.58,101.233H19.603L44.969,57.297z M100.633,57.297
		c12.36-21.409,23.77-30.532,53.186-30.532h9.123l-12.253,21.223h-6.517c-6.329,0-11.694,3.165-15.349,9.495l-4.622,8.005h9.682
		l-20.637,35.744H75.267L100.633,57.297z"/>
</g>
<g id="rightquote">
	<path fill="#1A2152" d="M990.222,450.644c-13.212,22.884-25.407,32.634-56.848,32.634h-9.748l13.096-22.685h6.963
		c6.768,0,12.502-3.384,16.405-10.148l4.942-8.555h-10.348l22.056-38.205h40.592L990.222,450.644z M930.727,450.644
		c-13.211,22.884-25.407,32.634-56.848,32.634h-9.751l13.097-22.685h6.965c6.766,0,12.5-3.384,16.406-10.148l4.939-8.555h-10.348
		l22.056-38.205h40.595L930.727,450.644z"/>
</g>
<g id="outlines">
	<polygon fill="#1A2152" points="952,372 961,372 961,35 175,35 175,44 952,44 	"/>
	<polygon fill="#1A2152" points="952,512 952,538 67,538 67,130 58,130 58,547 961,547 961,512 	"/>
</g>
</svg>
